<svg width="125" height="45" viewBox="0 0 125 45" fill="none" xmlns="http://www.w3.org/2000/svg">
<path fill-rule="evenodd" clip-rule="evenodd" d="M0 18.1785C0 22.0045 1.09599 24.0964 3.444 26.7181L4.86251 27.9699C5.79106 28.7804 7.34182 29.6738 8.55293 30.1709C10.2873 30.8837 12.3356 31.2808 14.4315 31.3579H15.949C18.0477 31.2808 20.1312 30.8837 21.936 30.1618C22.2081 30.0527 22.3813 29.9322 22.6771 29.8731C22.759 30.0068 22.816 30.1413 22.9216 30.2808C23.2461 30.7106 23.8074 30.9871 24.4705 30.9871H30.5698V5.37079H24.3982C23.3964 5.37079 23.0234 5.85642 22.6762 6.42244L21.2653 5.90646C19.3102 5.14766 17.123 5 14.9253 5C11.6792 5 8.71371 5.78095 6.34477 7.31578C5.82626 7.65211 4.73693 8.40927 4.28503 8.81944C4.09855 8.98842 4.05099 9.08686 3.85785 9.25503C3.6847 9.40597 3.55912 9.4921 3.40214 9.66601C2.73617 10.401 2.41461 10.7398 1.86851 11.561C0.568926 13.5142 0 15.5272 0 18.1794L0 18.1785ZM13.131 15.0318C13.131 14.6979 12.8151 14.3328 12.5773 14.1959C12.7809 13.8644 12.8732 13.6692 13.2537 13.4658C14.1423 12.9916 15.5085 12.9301 16.1649 13.6692C17.0488 14.6643 16.223 15.3238 16.5931 15.9276C17.3913 15.7668 17.0773 14.5666 17.0773 14.136C18.278 13.8948 19.1608 14.5068 19.432 15.5092C19.2331 15.5994 18.6699 15.7454 18.6699 16.2852C18.6699 16.857 19.3473 15.9267 19.6394 15.9267C20.0095 15.9267 20.3253 15.9497 20.5032 16.3164C20.703 16.7298 20.6317 16.9751 20.3948 17.3533C20.1978 17.6683 19.8392 17.8963 19.3625 17.8963H15.2078C14.695 17.8963 14.7921 16.9029 14.7921 16.8217C14.7921 15.985 13.6961 16.6732 14.3763 17.8963L12.4897 17.9308C12.2253 17.9447 12.2643 17.8963 11.9532 17.8963C11.3205 17.8963 10.1265 18.0801 9.68222 17.7643C9.24553 17.4534 9.25219 17.1244 9.25219 16.7019C9.25219 16.4911 9.66224 15.7422 10.2521 15.9538C10.5223 16.0506 10.6859 16.1605 10.8648 16.3279C11.1968 16.6388 10.977 16.6823 11.4689 16.583C11.4689 16.1023 11.4261 16.172 11.1645 15.8898C10.9904 15.702 10.8039 15.6158 10.5689 15.5084C10.6403 15.2434 10.5993 15.2286 10.7249 15.0457C10.977 14.6774 11.4813 14.4091 11.9541 14.3148C11.9665 14.3238 11.9846 14.3353 11.9922 14.341L12.0673 14.396C12.7913 14.9588 12.5383 15.1343 12.5097 15.446L12.7847 15.5691C12.9835 15.4542 13.131 15.3164 13.131 15.0318ZM16.7424 21.313C16.7424 21.6469 17.0583 22.0119 17.2961 22.1489C17.0925 22.4803 17.0012 22.6756 16.6197 22.879C15.7311 23.3531 14.3649 23.4147 13.7085 22.6756C12.8246 21.6805 13.6504 21.021 13.2803 20.4172C12.4821 20.5772 12.7951 21.7781 12.7951 22.2088C11.5945 22.45 10.7116 21.838 10.4405 20.8356C10.6393 20.7453 11.2025 20.5993 11.2025 20.0595C11.2025 19.4878 10.5251 20.418 10.2331 20.418C9.86298 20.418 9.54712 20.3951 9.37016 20.0284C9.17037 19.6149 9.24173 19.3696 9.47862 18.9915C9.67556 18.6765 10.0342 18.4484 10.5109 18.4484H14.6656C15.1784 18.4484 15.0813 19.4418 15.0813 19.523C15.0813 20.3598 16.1773 19.6715 15.4971 18.4484L17.3837 18.414C17.6481 18.4 17.6091 18.4484 17.9202 18.4484C18.5529 18.4484 19.7469 18.2647 20.1912 18.5805C20.6279 18.8914 20.6212 19.2203 20.6212 19.6428C20.6212 19.8536 20.2112 20.6026 19.6213 20.391C19.3511 20.2942 19.1875 20.1842 19.0086 20.0169C18.6766 19.706 18.8954 19.6633 18.4045 19.7618C18.4045 20.2425 18.4473 20.1727 18.7089 20.4549C18.883 20.6428 19.0695 20.7289 19.3045 20.8364C19.2331 21.1014 19.2741 21.1161 19.1485 21.2991C18.8964 21.6674 18.3921 21.9356 17.9193 22.03C17.9069 22.0209 17.8888 22.0086 17.8812 22.0037L17.8061 21.9487C17.0821 21.386 17.3351 21.2105 17.3637 20.8987L17.0887 20.7757C16.8899 20.8905 16.7424 21.0283 16.7424 21.313Z" fill="#0BB9CD"/>
<path fill-rule="evenodd" clip-rule="evenodd" d="M23.4407 32.8418H30.6237V40H23.4407C22.8585 40 22.3828 39.5898 22.3828 39.0878V33.754C22.3828 33.252 22.8585 32.8418 23.4407 32.8418Z" fill="#0BB9CD"/>
<path d="M42.489 36L52.857 10.8H55.737L66.033 36H61.569L53.505 15.588H55.017L46.881 36H42.489ZM47.601 31.14V27.54H60.957V31.14H47.601ZM75.3148 36.36C73.7548 36.36 72.3388 35.964 71.0668 35.172C69.8188 34.38 68.8228 33.312 68.0788 31.968C67.3588 30.6 66.9988 29.076 66.9988 27.396C66.9988 25.692 67.3588 24.168 68.0788 22.824C68.8228 21.456 69.8188 20.376 71.0668 19.584C72.3388 18.768 73.7548 18.36 75.3148 18.36C76.6348 18.36 77.7988 18.648 78.8068 19.224C79.8388 19.776 80.6548 20.544 81.2548 21.528C81.8548 22.512 82.1548 23.628 82.1548 24.876V29.844C82.1548 31.092 81.8548 32.208 81.2548 33.192C80.6788 34.176 79.8748 34.956 78.8428 35.532C77.8108 36.084 76.6348 36.36 75.3148 36.36ZM75.9628 32.616C77.4268 32.616 78.6028 32.124 79.4908 31.14C80.4028 30.156 80.8588 28.896 80.8588 27.36C80.8588 26.328 80.6548 25.416 80.2468 24.624C79.8388 23.832 79.2628 23.22 78.5188 22.788C77.7988 22.332 76.9468 22.104 75.9628 22.104C75.0028 22.104 74.1508 22.332 73.4068 22.788C72.6868 23.22 72.1108 23.832 71.6788 24.624C71.2708 25.416 71.0668 26.328 71.0668 27.36C71.0668 28.392 71.2708 29.304 71.6788 30.096C72.1108 30.888 72.6868 31.512 73.4068 31.968C74.1508 32.4 75.0028 32.616 75.9628 32.616ZM80.6068 43.2V31.752L81.2908 27.576L80.6068 23.364V18.72H84.5668V43.2H80.6068ZM88.9976 36V18.72H92.9576V36H88.9976ZM90.9776 15.552C90.3056 15.552 89.7416 15.324 89.2856 14.868C88.8536 14.412 88.6376 13.848 88.6376 13.176C88.6376 12.504 88.8536 11.94 89.2856 11.484C89.7416 11.028 90.3056 10.8 90.9776 10.8C91.6736 10.8 92.2376 11.028 92.6696 11.484C93.1016 11.94 93.3176 12.504 93.3176 13.176C93.3176 13.848 93.1016 14.412 92.6696 14.868C92.2376 15.324 91.6736 15.552 90.9776 15.552ZM97.3991 36V10.08H101.359V36H97.3991ZM113.002 36.36C111.442 36.36 110.026 35.964 108.754 35.172C107.506 34.38 106.51 33.312 105.766 31.968C105.046 30.6 104.686 29.076 104.686 27.396C104.686 25.692 105.046 24.168 105.766 22.824C106.51 21.456 107.506 20.376 108.754 19.584C110.026 18.768 111.442 18.36 113.002 18.36C114.322 18.36 115.486 18.648 116.494 19.224C117.526 19.776 118.342 20.544 118.942 21.528C119.542 22.512 119.842 23.628 119.842 24.876V29.844C119.842 31.092 119.542 32.208 118.942 33.192C118.366 34.176 117.562 34.956 116.53 35.532C115.498 36.084 114.322 36.36 113.002 36.36ZM113.65 32.616C115.114 32.616 116.29 32.124 117.178 31.14C118.09 30.156 118.546 28.896 118.546 27.36C118.546 26.328 118.342 25.416 117.934 24.624C117.526 23.832 116.95 23.22 116.206 22.788C115.486 22.332 114.634 22.104 113.65 22.104C112.69 22.104 111.838 22.332 111.094 22.788C110.374 23.22 109.798 23.832 109.366 24.624C108.958 25.416 108.754 26.328 108.754 27.36C108.754 28.392 108.958 29.304 109.366 30.096C109.798 30.888 110.374 31.512 111.094 31.968C111.838 32.4 112.69 32.616 113.65 32.616ZM118.294 36V31.356L118.978 27.144L118.294 22.968V18.72H122.254V36H118.294Z" fill="#0BB9CD"/>
</svg>
