<svg width="16" height="16" viewBox="0 0 16 16" fill="none" xmlns="http://www.w3.org/2000/svg">
<path d="M13.3661 10.9822C12.5636 10 11.9971 9.5 11.9971 6.79219C11.9971 4.3125 10.7308 3.42906 9.68863 3C9.55019 2.94312 9.41988 2.8125 9.37769 2.67031C9.19488 2.04812 8.68238 1.5 8.00113 1.5C7.31988 1.5 6.80707 2.04844 6.62613 2.67094C6.58394 2.81469 6.45363 2.94312 6.31519 3C5.27176 3.42969 4.00676 4.31 4.00676 6.79219C4.00519 9.5 3.43863 10 2.63613 10.9822C2.30363 11.3891 2.59488 12 3.17644 12H12.8289C13.4074 12 13.6968 11.3872 13.3661 10.9822Z" stroke="white" stroke-linecap="round" stroke-linejoin="round"/>
<path d="M10 12V12.5C10 13.0304 9.78929 13.5391 9.41421 13.9142C9.03914 14.2893 8.53043 14.5 8 14.5C7.46957 14.5 6.96086 14.2893 6.58579 13.9142C6.21071 13.5391 6 13.0304 6 12.5V12" stroke="white" stroke-linecap="round" stroke-linejoin="round"/>
</svg>
