<svg width="164" height="164" viewBox="0 0 164 164" fill="none" xmlns="http://www.w3.org/2000/svg">
<path d="M10.8965 129.744L19.3285 115.496L146.904 116.224L153.104 129.744H10.8965Z" fill="#46A1F8"/>
<path d="M59.6086 115.728L19.3286 115.496L15.9766 121.16C22.2166 120.704 50.4246 119.296 66.3446 129.744H78.6406C75.0806 126.048 68.7206 120.36 59.6086 115.728Z" fill="#3084D6"/>
<path d="M97.6554 129.744C115.183 118.24 147.631 121.104 149.207 121.256L146.903 116.224L103.903 115.976C95.0474 120.568 88.8474 126.112 85.3594 129.744H97.6554Z" fill="#3084D6"/>
<path d="M56.5681 72.4238L19.3281 104.408L82.0001 129.744V79.0958L56.5681 72.4238Z" fill="white"/>
<path d="M107.432 72.4238L82 79.0958V129.744L144.672 104.408L107.432 72.4238Z" fill="white"/>
<path opacity="0.2" d="M85.36 78.2158L82.2 79.0478L82 130.08L92.416 125.528L85.36 78.2158Z" fill="#231F20"/>
<path opacity="0.2" d="M80.4 78.6802L82 79.0962V129.744L71.584 125.528L80.4 78.6802Z" fill="#231F20"/>
<path d="M104.024 55.9278C104.024 43.6958 94.048 33.7918 81.792 33.9038C69.536 34.0158 59.84 44.0398 59.976 56.1918C60.0325 61.5443 62.0441 66.6914 65.632 70.6638C70.136 75.6638 72.688 82.1198 72.688 88.8558V88.8958H91.312V88.8558C91.3057 82.1598 93.7959 75.702 98.296 70.7438C101.989 66.6937 104.032 61.4085 104.024 55.9278Z" fill="#F4C23F"/>
<path d="M72.6328 88.8561H91.3608V96.7442C91.3587 99.2259 90.3719 101.605 88.617 103.36C86.8621 105.115 84.4826 106.102 82.0008 106.104C79.5163 106.104 77.1335 105.117 75.3766 103.36C73.6198 101.603 72.6328 99.2207 72.6328 96.7361V88.8481V88.8561Z" fill="#4D4C78"/>
<path d="M91.3688 95.4798V92.2798H72.6328V95.4798H91.3688Z" fill="#323150"/>
<path d="M82.0004 25.6802C81.576 25.6802 81.1691 25.5116 80.869 25.2115C80.569 24.9115 80.4004 24.5045 80.4004 24.0802V15.2802C80.4004 14.8558 80.569 14.4489 80.869 14.1488C81.1691 13.8487 81.576 13.6802 82.0004 13.6802C82.4247 13.6802 82.8317 13.8487 83.1318 14.1488C83.4318 14.4489 83.6004 14.8558 83.6004 15.2802V24.0802C83.6004 24.5045 83.4318 24.9115 83.1318 25.2115C82.8317 25.5116 82.4247 25.6802 82.0004 25.6802Z" fill="#F8881B"/>
<path d="M59.6803 34.9282C59.2542 34.9268 58.8459 34.7572 58.5443 34.4562L52.3283 28.2402C52.028 27.94 51.8594 27.5328 51.8594 27.1082C51.8594 26.6836 52.028 26.2764 52.3283 25.9762C52.6285 25.676 53.0357 25.5073 53.4603 25.5073C53.8848 25.5073 54.292 25.676 54.5923 25.9762L60.8083 32.2002C61.0307 32.4239 61.182 32.7084 61.2432 33.0179C61.3044 33.3274 61.2727 33.6481 61.1521 33.9396C61.0316 34.2311 60.8275 34.4805 60.5657 34.6564C60.3038 34.8323 59.9957 34.9269 59.6803 34.9282Z" fill="#F8881B"/>
<path d="M104.32 34.9282C104.746 34.9268 105.154 34.7572 105.456 34.4562L111.672 28.2402C111.972 27.94 112.141 27.5328 112.141 27.1082C112.141 26.6836 111.972 26.2764 111.672 25.9762C111.372 25.676 110.964 25.5073 110.54 25.5073C110.115 25.5073 109.708 25.676 109.408 25.9762L103.192 32.2002C102.969 32.4239 102.818 32.7084 102.757 33.0179C102.696 33.3274 102.727 33.6481 102.848 33.9396C102.969 34.2311 103.173 34.4805 103.434 34.6564C103.696 34.8323 104.004 34.9269 104.32 34.9282Z" fill="#F8881B"/>
<path d="M50.4313 57.2479H41.6313C41.2069 57.2479 40.7999 57.0793 40.4999 56.7792C40.1998 56.4792 40.0312 56.0722 40.0312 55.6479C40.0312 55.2235 40.1998 54.8165 40.4999 54.5165C40.7999 54.2164 41.2069 54.0479 41.6313 54.0479H50.4313C50.8556 54.0479 51.2626 54.2164 51.5626 54.5165C51.8627 54.8165 52.0313 55.2235 52.0313 55.6479C52.0313 56.0722 51.8627 56.4792 51.5626 56.7792C51.2626 57.0793 50.8556 57.2479 50.4313 57.2479Z" fill="#F8881B"/>
<path d="M122.369 57.2479H113.569C113.144 57.2479 112.737 57.0793 112.437 56.7792C112.137 56.4792 111.969 56.0722 111.969 55.6479C111.969 55.2235 112.137 54.8165 112.437 54.5165C112.737 54.2164 113.144 54.0479 113.569 54.0479H122.369C122.793 54.0479 123.2 54.2164 123.5 54.5165C123.8 54.8165 123.969 55.2235 123.969 55.6479C123.969 56.0722 123.8 56.4792 123.5 56.7792C123.2 57.0793 122.793 57.2479 122.369 57.2479Z" fill="#F8881B"/>
<path d="M92.9201 129.744H71.0801V135.841H92.9201V129.744Z" fill="#323150"/>
<path d="M71.0885 129.744H10.8965V135.841H71.0885V129.744Z" fill="#67BAEB"/>
<path d="M92.9115 135.84H153.104V129.743H92.9115V135.84Z" fill="#67BAEB"/>
<path d="M82.0005 129.744C82.0005 129.744 60.7205 100.624 19.3285 104.408L14.7285 117.4C14.7285 117.4 55.2005 113.408 71.0805 129.744H82.0005Z" fill="#D0E6FD"/>
<path d="M82 129.744C82 129.744 103.28 100.624 144.672 104.408L149.272 117.4C149.272 117.4 108.8 113.408 92.92 129.744H82Z" fill="#D0E6FD"/>
<path d="M81.7923 33.9038C74.1123 33.9758 67.3763 38.0078 63.4883 44.0318C64.0723 61.1518 77.4323 75.0318 94.3363 76.4398C95.4003 74.3754 96.7318 72.4602 98.2963 70.7438C101.989 66.6937 104.032 61.4085 104.024 55.9278C104.024 43.6958 94.0483 33.7918 81.7923 33.9038Z" fill="#FAD564"/>
<path d="M112.373 77.003C111.296 76.0467 109.649 76.1433 108.694 77.2187C107.739 78.2942 107.838 79.9412 108.915 80.8975L117.476 88.4987C118.554 89.455 120.201 89.3584 121.156 88.2829C122.11 87.2075 122.011 85.5605 120.934 84.6042L112.373 77.003Z" fill="#DFDAFD"/>
</svg>
