<svg width="16" height="4" viewBox="0 0 16 4" fill="none" xmlns="http://www.w3.org/2000/svg">
<path d="M3.83333 2.00065C3.83333 2.44268 3.65774 2.8666 3.34518 3.17916C3.03262 3.49172 2.60869 3.66732 2.16667 3.66732C1.72464 3.66732 1.30072 3.49172 0.988155 3.17916C0.675595 2.8666 0.5 2.44268 0.5 2.00065C0.5 1.55862 0.675595 1.1347 0.988155 0.82214C1.30072 0.509579 1.72464 0.333984 2.16667 0.333984C2.60869 0.333984 3.03262 0.509579 3.34518 0.82214C3.65774 1.1347 3.83333 1.55862 3.83333 2.00065ZM9.66667 2.00065C9.66667 2.44268 9.49107 2.8666 9.17851 3.17916C8.86595 3.49172 8.44203 3.66732 8 3.66732C7.55797 3.66732 7.13405 3.49172 6.82149 3.17916C6.50893 2.8666 6.33333 2.44268 6.33333 2.00065C6.33333 1.55862 6.50893 1.1347 6.82149 0.82214C7.13405 0.509579 7.55797 0.333984 8 0.333984C8.44203 0.333984 8.86595 0.509579 9.17851 0.82214C9.49107 1.1347 9.66667 1.55862 9.66667 2.00065ZM15.5 2.00065C15.5 2.44268 15.3244 2.8666 15.0118 3.17916C14.6993 3.49172 14.2754 3.66732 13.8333 3.66732C13.3913 3.66732 12.9674 3.49172 12.6548 3.17916C12.3423 2.8666 12.1667 2.44268 12.1667 2.00065C12.1667 1.55862 12.3423 1.1347 12.6548 0.82214C12.9674 0.509579 13.3913 0.333984 13.8333 0.333984C14.2754 0.333984 14.6993 0.509579 15.0118 0.82214C15.3244 1.1347 15.5 1.55862 15.5 2.00065Z" fill="#CDCDCD"/>
</svg>
