<svg width="51" height="51" viewBox="0 0 51 51" fill="none" xmlns="http://www.w3.org/2000/svg">
<rect width="51" height="51" rx="8" fill="#0BB9CD"/>
<path d="M26.0003 9C17.1639 9 10 16.1627 10 24.9993C10 33.836 17.1639 41 26.0003 41C34.8361 41 42 33.836 42 24.9993C42 16.1627 34.8361 9 26.0003 9ZM31.4737 16.3789C31.5225 16.3789 31.5692 16.3983 31.6037 16.4327L32.7179 17.5472C32.7897 17.619 32.7897 17.7352 32.7179 17.807L26.1926 24.3325C26.1567 24.3684 26.1097 24.3864 26.0626 24.3864C26.0156 24.3864 25.9686 24.3684 25.9327 24.3325L22.6676 21.0676C22.6332 21.0331 22.6138 20.9865 22.6138 20.9376C22.6138 20.8888 22.6332 20.8422 22.6676 20.8077L23.782 19.6934C23.8538 19.6216 23.9701 19.6216 24.0419 19.6934L26.0626 21.7142L31.3438 16.4327C31.3783 16.3983 31.4249 16.3789 31.4737 16.3789ZM16.8284 30.8858V22.2956C16.8284 22.1589 16.8533 22.0175 16.9045 21.8632C16.9045 21.863 16.9047 21.8628 16.9048 21.8626C16.9987 21.5808 17.17 21.3442 17.4 21.1782L25.1935 15.5545C25.6758 15.2064 26.324 15.2064 26.8064 15.5545L29.6503 17.6066L29.1238 18.1331L26.3765 16.1507C26.1511 15.9881 25.8489 15.9881 25.6235 16.1507L17.8301 21.7741C17.8004 21.7956 17.7779 21.8259 17.7525 21.8528L25.8088 26.7582L17.3163 31.9292C17.0203 31.6762 16.8284 31.3048 16.8284 30.8858ZM35.1716 30.8858C35.1716 31.6457 34.5532 32.264 33.7932 32.264H18.2066C18.0125 32.264 17.8282 32.2227 17.6606 32.15L34.1906 22.0854C34.2649 22.0402 34.2921 21.9512 34.2662 21.8719C34.2603 21.8651 34.2536 21.8595 34.2475 21.853C34.2221 21.8259 34.1994 21.7956 34.1696 21.774L34.1362 21.7498L31.3241 19.7207L31.8505 19.1942L34.5998 21.178C34.8304 21.3444 35.0014 21.5813 35.0952 21.8629C35.0951 21.8628 35.0953 21.863 35.0952 21.8629C35.1465 22.0176 35.1717 22.1594 35.1717 22.2956L35.1716 30.8858Z" fill="white"/>
</svg>
