<svg width="14" height="15" viewBox="0 0 14 15" fill="none" xmlns="http://www.w3.org/2000/svg">
<path d="M12.2495 0.5H1.74993C0.786102 0.5 0 1.29024 0 2.23441V10.1258C0 11.0947 0.786102 11.8602 1.74993 11.8602H4.37483V14.1686C4.37483 14.4389 4.67615 14.596 4.89762 14.4352L8.31272 11.8602H12.2501C13.2139 11.8602 14 11.07 14 10.1258V2.23441C13.9995 1.29024 13.2366 0.5 12.2495 0.5ZM12.7116 10.1753C12.7116 10.4158 12.5134 10.6151 12.2741 10.6151H7.8993L5.71189 12.2643V10.6151H1.77454C1.53529 10.6151 1.33706 10.4158 1.33706 10.1753V2.25915C1.33706 2.01864 1.53529 1.81936 1.77454 1.81936H12.2741C12.5134 1.81936 12.7116 2.01864 12.7116 2.25915V10.1753Z" fill="#001F22"/>
</svg>
