<svg width="16" height="16" viewBox="0 0 16 16" fill="none" xmlns="http://www.w3.org/2000/svg">
<g clip-path="url(#clip0_876_974)">
<path d="M3.80017 12.2002H3.33347C2.04493 12.2002 1 11.1552 1 9.86668C1 8.57813 2.04493 7.5332 3.33347 7.5332H3.80017V12.2002Z" stroke="white" stroke-width="1.4" stroke-miterlimit="10" stroke-linejoin="round"/>
<path d="M12.6659 12.2002H12.1992V7.5332H12.6659C13.9545 7.5332 14.9994 8.57813 14.9994 9.86668C14.9994 11.1552 13.9545 12.2002 12.6659 12.2002Z" stroke="white" stroke-width="1.4" stroke-miterlimit="10" stroke-linejoin="round"/>
<path d="M2.86523 7.53373V6.13364C2.86523 3.29847 5.16371 1 7.99888 1C10.8341 1 13.1325 3.29847 13.1325 6.13364V7.53373" stroke="white" stroke-width="1.4" stroke-miterlimit="10" stroke-linejoin="round"/>
<path d="M13.1343 12.2012V14.068C13.1343 14.5836 12.7166 15.0013 12.2009 15.0013H10.8008" stroke="white" stroke-width="1.4" stroke-miterlimit="10" stroke-linejoin="round"/>
<path d="M8.93359 15H9.86698" stroke="white" stroke-width="1.4" stroke-miterlimit="10" stroke-linejoin="round"/>
</g>
<defs>
<clipPath id="clip0_876_974">
<rect width="16" height="16" fill="white"/>
</clipPath>
</defs>
</svg>
