<svg width="14" height="17" viewBox="0 0 14 17" fill="none" xmlns="http://www.w3.org/2000/svg">
<path d="M13.5 3.00977H10.9256L9.86312 1.23633C9.56563 0.785609 9.10625 0.509766 8.58125 0.509766H5.41875C4.89375 0.509766 4.40625 0.785609 4.1375 1.23633L3.07437 3.00977H0.5C0.222656 3.00977 0 3.23258 0 3.50977V4.00977C0 4.28789 0.222656 4.50977 0.5 4.50977H1V14.5098C1 15.6145 1.89531 16.5098 3 16.5098H11C12.1047 16.5098 13 15.6145 13 14.5098V4.50977H13.5C13.7781 4.50977 14 4.28789 14 4.00977V3.50977C14 3.23258 13.7781 3.00977 13.5 3.00977ZM5.37187 2.09977C5.40312 2.04508 5.46562 2.00977 5.53125 2.00977H8.46875C8.53516 2.00977 8.59766 2.04492 8.62891 2.09961L9.175 3.00977H4.825L5.37187 2.09977ZM11 15.0098H3C2.72384 15.0098 2.5 14.7859 2.5 14.5098V4.50977H11.5V14.5098C11.5 14.7848 11.275 15.0098 11 15.0098ZM7 13.5098C7.27637 13.5098 7.5 13.2861 7.5 13.0098V6.50977C7.5 6.23339 7.27637 6.00977 7 6.00977C6.72363 6.00977 6.5 6.23477 6.5 6.50977V13.0098C6.5 13.2848 6.725 13.5098 7 13.5098ZM4.5 13.5098C4.775 13.5098 5 13.2848 5 13.0098V6.50977C5 6.23339 4.77637 6.00977 4.5 6.00977C4.22363 6.00977 4 6.23477 4 6.50977V13.0098C4 13.2848 4.225 13.5098 4.5 13.5098ZM9.5 13.5098C9.77637 13.5098 10 13.2861 10 13.0098V6.50977C10 6.23339 9.77637 6.00977 9.5 6.00977C9.22363 6.00977 9 6.23477 9 6.50977V13.0098C9 13.2848 9.225 13.5098 9.5 13.5098Z" fill="#FE7070"/>
</svg>
