<svg width="47" height="58" viewBox="0 0 47 58" fill="none" xmlns="http://www.w3.org/2000/svg">
<g clip-path="url(#clip0_389_617)">
<path d="M35.5989 30.6768C36.2425 28.9552 36.0685 27.0513 35.1459 25.4824C35.3063 25.229 35.4336 24.9756 35.5307 24.7156C36.3323 22.571 35.4122 20.1972 33.4666 19.1203C33.6059 18.8916 33.7187 18.6584 33.8087 18.4176C34.6621 16.1344 33.56 13.5964 31.3501 12.6354C31.3153 12.6154 31.2798 12.5963 31.2409 12.5817C31.2222 12.5747 31.203 12.5703 31.1837 12.5636C31.1651 12.5561 31.1477 12.5469 31.1285 12.5397C30.914 12.4596 30.6909 12.3981 30.4479 12.3526C30.8368 10.104 29.5917 7.85571 27.3979 7.03575C24.9105 6.10603 22.1303 7.37337 21.2004 9.86126L9.66107 40.7342C8.48417 43.883 10.0884 47.4013 13.2367 48.578C15.3255 49.3588 17.6438 48.9373 19.3162 47.5163C19.5223 47.6489 19.7265 47.7594 19.9377 47.8543C21.2649 48.4492 22.7554 48.4986 24.1213 47.9805C25.4871 47.4624 26.5694 46.4434 27.1688 45.1109C27.4185 44.5557 27.5682 43.961 27.6169 43.3365C29.8659 42.7407 31.6567 41.1356 32.474 38.9488C33.0666 37.3634 33.0646 35.6279 32.4753 34.0256C33.9214 33.3555 35.0459 32.1564 35.5989 30.6768ZM31.0696 38.4249C30.4597 40.0567 29.1593 41.2766 27.5142 41.8035C27.1332 39.9551 25.8222 38.3756 24.0158 37.7005C23.628 37.5555 23.1956 37.7526 23.0507 38.1404C22.9057 38.5282 23.1028 38.9606 23.4906 39.1055C25.0554 39.6904 26.1142 41.2033 26.13 42.872C26.1315 43.4533 26.024 44.0008 25.8008 44.4966C25.3658 45.4635 24.5807 46.2029 23.5894 46.5786C22.598 46.9548 21.5176 46.922 20.5534 46.4869C20.282 46.3646 20.0169 46.1972 19.7184 45.9602C19.4142 45.7173 18.975 45.7485 18.7068 46.0305C17.4342 47.3718 15.4927 47.8204 13.7612 47.1733C11.3876 46.2861 10.1783 43.6333 11.0655 41.2597L22.6048 10.3867C23.245 8.67395 25.1593 7.80092 26.8721 8.4411C28.4636 9.03594 29.3246 10.7253 28.9093 12.3562C27.345 12.6127 25.9554 13.6728 25.3618 15.261C25.2167 15.6492 25.4139 16.0811 25.8017 16.2261C26.1895 16.371 26.6217 16.1744 26.7668 15.7861C27.3521 14.2204 29.088 13.4163 30.6576 13.9683C32.2044 14.5811 32.9873 16.3267 32.4023 17.8919C32.2934 18.1833 32.1258 18.4644 31.8891 18.7522C31.8333 18.82 31.7902 18.8968 31.761 18.9792C31.7543 18.9986 31.7486 19.0168 31.7441 19.0343C31.7377 19.0431 31.7333 19.049 31.7333 19.049C31.5967 19.2461 31.5626 19.4971 31.6418 19.7236C31.721 19.9502 31.9005 20.1241 32.1336 20.1946C32.1835 20.2095 32.2345 20.2217 32.3252 20.2417C33.9096 20.8339 34.7171 22.6052 34.1249 24.1896C34.0248 24.4575 33.8738 24.7144 33.6504 24.9993C33.4442 25.2611 33.4357 25.6279 33.6296 25.8989C34.4827 27.0926 34.7026 28.6107 34.2418 29.9934C34.2411 29.9953 34.2399 29.997 34.2392 29.9989C33.3587 32.3547 30.7257 33.5553 28.3699 32.6748C26.0141 31.7943 24.8136 29.1608 25.6941 26.805C25.8393 26.4167 25.642 25.9848 25.2542 25.8399C24.8664 25.6949 24.4342 25.8915 24.2891 26.2798C23.1188 29.4108 24.7138 32.9096 27.8447 34.0799C28.8882 34.4699 29.971 34.5463 30.9965 34.3675C31.5299 35.6825 31.5575 37.1196 31.0696 38.4249Z" fill="white" fill-opacity="0.5"/>
<path d="M16.2038 2.85222C14.0101 2.03226 11.596 2.91279 10.4151 4.86544C10.2014 4.7402 9.9927 4.6403 9.7782 4.56012C9.75946 4.55312 9.74032 4.54863 9.72094 4.54192C9.70238 4.53445 9.68499 4.52529 9.66579 4.51811C9.62692 4.50358 9.58752 4.49473 9.54825 4.48699C7.24977 3.76293 4.75358 4.956 3.90018 7.23922C3.8102 7.47996 3.74282 7.73021 3.69758 7.99407C1.52263 7.53077 -0.728959 8.71918 -1.53054 10.8638C-1.62752 11.1232 -1.69768 11.3981 -1.74301 11.695C-3.46845 12.274 -4.84851 13.5971 -5.49202 15.3188C-6.04502 16.7983 -5.98321 18.4409 -5.33194 19.896C-6.82818 20.7187 -7.96804 22.0275 -8.5606 23.6129C-9.37794 25.7996 -9.07878 28.1854 -7.77216 30.1107C-8.14544 30.6138 -8.42206 31.1611 -8.59746 31.7447C-9.01876 33.1432 -8.87069 34.6221 -8.17952 35.9091C-7.48852 37.1965 -6.33471 38.1353 -4.93877 38.5578C-4.72042 38.6234 -4.49155 38.6737 -4.24824 38.7097C-3.91806 40.8796 -2.44457 42.7184 -0.355715 43.4992C2.79256 44.6759 6.31137 43.0718 7.48809 39.9236L19.0278 9.04966C19.9586 6.56212 18.6913 3.78194 16.2038 2.85222ZM6.08432 39.3978C5.19714 41.7714 2.54436 42.9807 0.170739 42.0935C-1.56077 41.4463 -2.73198 39.8342 -2.81239 37.9872C-2.82601 37.6794 -3.0238 37.4203 -3.29919 37.3173C-3.37132 37.2904 -3.44888 37.2737 -3.52993 37.2706C-3.91016 37.2539 -4.22013 37.2064 -4.50563 37.1205C-5.5224 36.8147 -6.35572 36.1322 -6.85707 35.1986C-7.3589 34.2648 -7.46651 33.1917 -7.16073 32.1765C-6.99326 31.6199 -6.69325 31.1043 -6.26883 30.6443C-6.26258 30.6376 -6.26018 30.6283 -6.2544 30.6214C-5.0909 29.425 -3.40855 29.0412 -1.82926 29.6315C-1.441 29.7767 -1.00909 29.5794 -0.864148 29.1916C-0.719201 28.8038 -0.915829 28.3716 -1.30409 28.2265C-3.14847 27.5371 -5.16856 27.8534 -6.69306 29.0087C-7.58364 27.5341 -7.76368 25.7651 -7.15536 24.1376C-6.66748 22.8323 -5.7031 21.7659 -4.43911 21.1233C-3.78228 21.9309 -2.91436 22.5835 -1.87087 22.9736C1.26008 24.1438 4.75894 22.5489 5.92919 19.4179C6.07431 19.0297 5.87751 18.5979 5.48925 18.4528C5.10098 18.3077 4.66925 18.5045 4.52413 18.8928C3.6436 21.2486 1.01059 22.4492 -1.3457 21.5685C-3.70199 20.6878 -4.90199 18.0545 -4.02145 15.6987C-4.0211 15.6977 -4.02122 15.6966 -4.02087 15.6957C-3.46234 14.3485 -2.30027 13.3459 -0.872564 13.0036C-0.548444 12.9261 -0.314899 12.6441 -0.298346 12.3113C-0.280421 11.9491 -0.225436 11.6564 -0.125304 11.3885C0.465685 9.80731 2.23067 8.99963 3.84837 9.60427C3.85165 9.6055 3.85539 9.6069 3.85867 9.60812C3.90446 9.63271 3.95043 9.65683 3.99838 9.67849C4.22028 9.77744 4.47231 9.76436 4.68057 9.64416C4.88948 9.52368 5.02783 9.31063 5.05179 9.07085C5.05197 9.07038 5.05284 9.06376 5.05347 9.05493C5.06101 9.03906 5.06801 9.0246 5.07338 9.01166C5.10723 8.92823 5.12592 8.83967 5.12805 8.74972C5.13847 8.37623 5.19659 8.05366 5.30512 7.76328C5.89016 6.19804 7.62577 5.39326 9.19566 5.94588C10.743 6.5589 11.5254 8.30431 10.9402 9.87002C10.7951 10.2583 10.9919 10.69 11.3801 10.8351C11.7684 10.9803 12.2001 10.7835 12.3452 10.3952C12.9389 8.807 12.5852 7.09536 11.5727 5.87566C12.3289 4.37227 14.0869 3.6618 15.6784 4.25664C17.3912 4.89682 18.2635 6.81143 17.6234 8.5242L6.08432 39.3978Z" fill="white" fill-opacity="0.5"/>
</g>
<defs>
<clipPath id="clip0_389_617">
<rect width="50" height="50" fill="white" transform="translate(-0.494141 -7) rotate(20.4942)"/>
</clipPath>
</defs>
</svg>
