<svg width="21" height="21" viewBox="0 0 21 21" fill="none" xmlns="http://www.w3.org/2000/svg">
<path d="M10.4995 4.66667C11.8468 4.66667 13.0838 5.12794 14.0714 5.89505L17.1023 3.00341C15.3401 1.44996 13.0333 0.5 10.4995 0.5C6.65979 0.5 3.33002 2.6666 1.6543 5.84154L5.02466 8.50232C5.8411 6.26614 7.98069 4.66667 10.4995 4.66667Z" fill="#F44336"/>
<path d="M20.4134 11.7515C20.4655 11.3418 20.5 10.9239 20.5 10.5C20.5 9.78512 20.4219 9.08901 20.2794 8.41666H10.5V12.5833H15.9052C15.4679 13.7198 14.6894 14.6815 13.6983 15.3495L17.0812 18.0202C18.8745 16.4462 20.1016 14.242 20.4134 11.7515Z" fill="#2196F3"/>
<path d="M4.66667 10.5C4.66667 9.79714 4.79738 9.12636 5.0252 8.50233L1.65484 5.84155C0.920278 7.23336 0.5 8.81681 0.5 10.5C0.5 12.1644 0.912547 13.7303 1.63185 15.1108L5.00648 12.4466C4.79036 11.837 4.66667 11.1837 4.66667 10.5Z" fill="#FFC107"/>
<path d="M10.501 16.3333C7.96302 16.3333 5.80965 14.7096 5.00745 12.4466L1.63281 15.1108C3.30034 18.3112 6.64248 20.5 10.501 20.5C13.0241 20.5 15.3249 19.5627 17.0822 18.0203L13.6993 15.3496C12.7853 15.9658 11.6913 16.3333 10.501 16.3333Z" fill="#00B060"/>
<path opacity="0.1" d="M10.4994 20.2917C7.55638 20.2917 4.91004 19.0774 3.03906 17.1428C4.87057 19.1982 7.52983 20.5 10.4994 20.5C13.4416 20.5 16.0788 19.2239 17.9062 17.2006C16.0408 19.1039 13.4145 20.2917 10.4994 20.2917Z" fill="black"/>
<path opacity="0.1" d="M10.5 12.375V12.5833H15.9052L15.9896 12.375H10.5Z" fill="black"/>
<path d="M20.4961 10.6225C20.4968 10.5815 20.5008 10.5411 20.5008 10.5C20.5008 10.4883 20.4989 10.4771 20.4989 10.4655C20.4983 10.5179 20.4957 10.5698 20.4961 10.6225Z" fill="#E6E6E6"/>
<path opacity="0.2" d="M10.5 8.41666V8.62499H20.3213C20.3082 8.55622 20.2939 8.48491 20.2794 8.41666H10.5Z" fill="white"/>
<path d="M20.2794 8.41667H10.5V12.5833H15.9052C15.0646 14.768 12.981 16.3333 10.5 16.3333C7.27836 16.3333 4.66667 13.7216 4.66667 10.5C4.66667 7.27831 7.27836 4.66667 10.5 4.66667C11.6682 4.66667 12.7449 5.02555 13.6571 5.61724C13.7967 5.70798 13.9408 5.79317 14.0719 5.89505L17.1029 3.00341L17.0345 2.95082C15.2808 1.43089 13.0029 0.5 10.5 0.5C4.97713 0.5 0.5 4.97713 0.5 10.5C0.5 16.0228 4.97713 20.5 10.5 20.5C15.5981 20.5 19.7962 16.6823 20.4134 11.7515C20.4655 11.3418 20.5 10.9239 20.5 10.5C20.5 9.78513 20.4219 9.08902 20.2794 8.41667Z" fill="url(#paint0_linear_220_6078)"/>
<path opacity="0.1" d="M13.6564 5.40892C12.7443 4.81723 11.6676 4.45834 10.4993 4.45834C7.27771 4.45834 4.66602 7.06999 4.66602 10.2917C4.66602 10.3268 4.66649 10.3543 4.6671 10.3893C4.7233 7.21627 7.31286 4.66668 10.4993 4.66668C11.6676 4.66668 12.7443 5.02556 13.6564 5.61725C13.7961 5.70799 13.9401 5.79318 14.0713 5.89506L17.1022 3.00342L14.0713 5.68673C13.9401 5.58485 13.7961 5.49965 13.6564 5.40892Z" fill="black"/>
<path opacity="0.2" d="M10.5 0.708333C12.9792 0.708333 15.2358 1.62366 16.9827 3.118L17.1029 3.00341L17.0112 2.92356C15.2575 1.40363 13.0029 0.5 10.5 0.5C4.97713 0.5 0.5 4.97713 0.5 10.5C0.5 10.5351 0.504883 10.5691 0.505239 10.6042C0.561696 5.12987 5.01228 0.708333 10.5 0.708333Z" fill="white"/>
<defs>
<linearGradient id="paint0_linear_220_6078" x1="0.5" y1="10.5" x2="20.5" y2="10.5" gradientUnits="userSpaceOnUse">
<stop stop-color="white" stop-opacity="0.2"/>
<stop offset="1" stop-color="white" stop-opacity="0"/>
</linearGradient>
</defs>
</svg>
