<svg width="16" height="16" viewBox="0 0 16 16" fill="none" xmlns="http://www.w3.org/2000/svg">
<path d="M6.5 5.5V4.25C6.5 3.91848 6.6317 3.60054 6.86612 3.36612C7.10054 3.1317 7.41848 3 7.75 3H12.75C13.0815 3 13.3995 3.1317 13.6339 3.36612C13.8683 3.60054 14 3.91848 14 4.25L14 11.75C14 12.0815 13.8683 12.3995 13.6339 12.6339C13.3995 12.8683 13.0815 13 12.75 13H8C7.30969 13 6.5 12.4403 6.5 11.75V10.5M4.5 5.5L2 8L4.5 10.5M10.5 8L2.5 8" stroke="#001F22" stroke-width="1.25" stroke-linecap="round" stroke-linejoin="round"/>
</svg>
