<svg width="14" height="12" viewBox="0 0 14 12" fill="none" xmlns="http://www.w3.org/2000/svg">
<path d="M5.5 3.5V2.25C5.5 1.91848 5.6317 1.60054 5.86612 1.36612C6.10054 1.1317 6.41848 1 6.75 1H11.75C12.0815 1 12.3995 1.1317 12.6339 1.36612C12.8683 1.60054 13 1.91848 13 2.25L13 9.75C13 10.0815 12.8683 10.3995 12.6339 10.6339C12.3995 10.8683 12.0815 11 11.75 11H7C6.30969 11 5.5 10.4403 5.5 9.75V8.5M3.5 3.5L1 6L3.5 8.5M9.5 6L1.5 6" stroke="white" stroke-width="1.25" stroke-linecap="round" stroke-linejoin="round"/>
</svg>
