<svg width="57" height="57" viewBox="0 0 57 57" fill="none" xmlns="http://www.w3.org/2000/svg">
<g clip-path="url(#clip0_389_601)">
<path d="M29.0171 32.6129C26.9678 32.8068 25.1396 31.2947 24.9457 29.2454C24.7518 27.196 26.2639 25.3678 28.3132 25.1739C30.3625 24.98 32.1905 26.4897 32.3847 28.5414C32.5788 30.5932 31.0689 32.4187 29.0171 32.6129Z" fill="#DE3226"/>
<path d="M21.8523 49.7817C21.1733 49.8459 20.5418 49.7507 19.9673 49.4925C18.8473 48.9909 18.0438 47.9244 17.5798 46.3232C17.1539 44.8608 17.0251 42.9979 17.1932 40.7843C17.5363 36.299 19.0691 30.8311 21.5089 25.3848C23.9488 19.9386 27.0113 15.1535 30.1299 11.9131C31.6686 10.3124 33.1456 9.17009 34.521 8.51241C36.0257 7.79498 37.3555 7.68665 38.4756 8.18821C39.5956 8.68977 40.3964 9.75408 40.8629 11.3551C41.2888 12.8174 41.4176 14.6803 41.2495 16.8939C40.9064 21.3792 39.3738 26.8496 36.934 32.2959C34.4941 37.7421 31.4314 42.5248 28.313 45.7676C26.7716 47.366 25.2948 48.5108 23.9217 49.1658C23.1897 49.5151 22.4999 49.7204 21.8523 49.7817ZM36.6794 8.89071C36.1516 8.94065 35.5731 9.1154 34.9486 9.41201C33.6832 10.0168 32.3022 11.09 30.8477 12.6028C29.3932 14.1155 27.8999 16.0369 26.4744 18.252C24.9942 20.5497 23.6291 23.0866 22.4175 25.7914C21.2058 28.4962 20.2217 31.2021 19.4912 33.8389C18.7862 36.3758 18.3473 38.74 18.1854 40.8604C18.0236 42.9809 18.1437 44.6997 18.536 46.0452C18.9147 47.3519 19.5331 48.206 20.3739 48.584C21.2147 48.9619 22.2644 48.8526 23.4916 48.2664C24.7597 47.6639 26.138 46.5884 27.595 45.0755C29.0519 43.5625 30.5405 41.644 31.966 39.429C33.4485 37.1285 34.8135 34.5917 36.0252 31.8868C37.2369 29.182 38.2209 26.4762 38.9517 23.8418C39.654 21.3027 40.0931 18.941 40.2548 16.818C40.4164 14.6951 40.2992 12.981 39.9066 11.6331C39.528 10.3263 38.9071 9.47247 38.0665 9.09698C37.6539 8.91101 37.1899 8.84241 36.6794 8.89071Z" fill="white"/>
<path d="M21.8523 49.7817C21.1733 49.8459 20.5418 49.7507 19.9673 49.4925C18.8473 48.9909 18.0438 47.9244 17.5798 46.3232C17.1539 44.8608 17.0251 42.9979 17.1932 40.7843C17.5363 36.299 19.0691 30.8311 21.5089 25.3848C23.9488 19.9386 27.0113 15.1535 30.1299 11.9131C31.6686 10.3124 33.1456 9.17009 34.521 8.51241C36.0257 7.79498 37.3555 7.68665 38.4756 8.18821C39.5956 8.68977 40.3964 9.75408 40.8629 11.3551C41.2888 12.8174 41.4176 14.6803 41.2495 16.8939C40.9064 21.3792 39.3738 26.8496 36.934 32.2959C34.4941 37.7421 31.4314 42.5248 28.313 45.7676C26.7716 47.366 25.2948 48.5108 23.9217 49.1658C23.1897 49.5151 22.4999 49.7204 21.8523 49.7817ZM36.6794 8.89071C36.1516 8.94065 35.5731 9.1154 34.9486 9.41201C33.6832 10.0168 32.3022 11.09 30.8477 12.6028C29.3932 14.1155 27.8999 16.0369 26.4744 18.252C24.9942 20.5497 23.6291 23.0866 22.4175 25.7914C21.2058 28.4962 20.2217 31.2021 19.4912 33.8389C18.7862 36.3758 18.3473 38.74 18.1854 40.8604C18.0236 42.9809 18.1437 44.6997 18.536 46.0452C18.9147 47.3519 19.5331 48.206 20.3739 48.584C21.2147 48.9619 22.2644 48.8526 23.4916 48.2664C24.7597 47.6639 26.138 46.5884 27.595 45.0755C29.0519 43.5625 30.5405 41.644 31.966 39.429C33.4485 37.1285 34.8135 34.5917 36.0252 31.8868C37.2369 29.182 38.2209 26.4762 38.9517 23.8418C39.654 21.3027 40.0931 18.941 40.2548 16.818C40.4164 14.6951 40.2992 12.981 39.9066 11.6331C39.528 10.3263 38.9071 9.47247 38.0665 9.09698C37.6539 8.91101 37.1899 8.84241 36.6794 8.89071Z" fill="white"/>
<path d="M40.619 47.8536C39.9945 47.9127 39.3019 47.8499 38.541 47.6652C37.0638 47.2999 35.3838 46.4813 33.5527 45.2295C29.8394 42.6881 25.8698 38.6259 22.3721 33.7915C18.8744 28.9571 16.2643 23.9112 15.0153 19.589C14.401 17.457 14.1483 15.6058 14.2671 14.0869C14.3973 12.4245 14.9682 11.2179 15.9627 10.4987C16.9573 9.77956 18.2822 9.61919 19.8999 10.0162C21.3793 10.3787 23.0594 11.1973 24.8907 12.4516C28.6037 14.9905 32.5733 19.0527 36.0688 23.8898C39.5642 28.727 42.179 33.7699 43.4254 38.0898C44.0424 40.2241 44.2926 42.0756 44.1735 43.5919C44.0433 45.2544 43.4749 46.4608 42.4804 47.1799C41.9516 47.5633 41.3312 47.7879 40.619 47.8536ZM17.9206 10.8185C17.3879 10.8689 16.9256 11.0302 16.5467 11.306C15.8003 11.8467 15.3662 12.8078 15.2596 14.1655C15.1519 15.5633 15.3908 17.2958 15.9742 19.3133C16.5577 21.3307 17.4732 23.5818 18.6773 25.923C19.93 28.3547 21.4446 30.8065 23.1794 33.2076C24.9142 35.6086 26.7682 37.8159 28.6852 39.7646C30.5308 41.6451 32.3585 43.2048 34.1148 44.4062C35.8711 45.6076 37.4178 46.3639 38.7795 46.6975C40.1411 47.0312 41.1501 46.9133 41.8965 46.3726C42.6429 45.8319 43.0745 44.871 43.181 43.5133C43.2912 42.1153 43.0523 40.3828 42.4689 38.3653C41.8854 36.3479 40.9699 34.0969 39.7633 31.7558C38.5131 29.324 36.9987 26.8746 35.2637 24.471C33.5287 22.0675 31.6751 19.8652 29.7579 17.914C27.9101 16.0362 26.0846 14.4738 24.3283 13.2724C22.572 12.071 21.0256 11.3172 19.6639 10.9836C19.0163 10.8248 18.4336 10.7699 17.9206 10.8185Z" fill="white"/>
<path d="M29.5778 37.2951C23.8263 37.8393 18.35 37.5649 14.1079 36.5162C11.9548 35.9824 10.2253 35.276 8.96849 34.4123C7.59669 33.4696 6.83524 32.3715 6.70996 31.1533C6.58469 29.9351 7.10567 28.7032 8.25931 27.4989C9.31283 26.3992 10.8617 25.355 12.8635 24.3956C16.9197 22.4491 22.4221 21.0434 28.3598 20.434C34.2976 19.8247 39.97 20.083 44.335 21.1626C46.4906 21.6962 48.2203 22.405 49.4744 23.2665C50.8489 24.2115 51.6101 25.307 51.7357 26.5277C51.8612 27.7485 51.3397 28.9754 50.1861 30.1796C49.1301 31.2796 47.5813 32.3238 45.5819 33.283C41.5257 35.2294 36.0233 36.6352 30.0858 37.247L29.5778 37.2951ZM28.4611 21.4245C25.5119 21.7261 22.6766 22.2269 20.0287 22.9125C17.4784 23.5714 15.2141 24.3732 13.2936 25.2949C11.3732 26.2167 9.94893 27.1765 8.97959 28.1883C8.01025 29.2001 7.60603 30.1334 7.70022 31.0496C7.79442 31.9658 8.41053 32.8225 9.53335 33.5913C10.6562 34.3602 12.3087 35.0463 14.3489 35.5484C16.389 36.0504 18.7934 36.3854 21.4255 36.5113C24.1559 36.6455 27.0378 36.5578 29.9845 36.2565C32.9313 35.9552 35.7688 35.4516 38.4167 34.7661C40.967 34.1072 43.2313 33.3054 45.1495 32.3863C47.0677 31.4673 48.4967 30.5045 49.4658 29.4902C50.4349 28.476 50.8394 27.5451 50.7452 26.629C50.651 25.7128 50.0326 24.8588 48.912 24.0872C47.7915 23.3157 46.1344 22.6349 44.0965 22.1302C42.0586 21.6255 39.6497 21.2959 37.0199 21.1672C34.2872 21.0358 31.4075 21.1207 28.4611 21.4245Z" fill="white"/>
<path d="M28.4855 26.9974C28.1106 27.0329 27.7546 27.1787 27.4626 27.4165C27.1705 27.6543 26.9556 27.9734 26.8449 28.3333C26.7342 28.6933 26.7327 29.078 26.8406 29.4388C26.9486 29.7996 27.1611 30.1203 27.4513 30.3603C27.7415 30.6004 28.0963 30.7489 28.471 30.7873C28.8456 30.8256 29.2232 30.752 29.5561 30.5758C29.8889 30.3995 30.1619 30.1285 30.3407 29.7971C30.5195 29.4656 30.596 29.0886 30.5606 28.7137C30.513 28.2109 30.2676 27.7476 29.8785 27.4258C29.4893 27.1039 28.9883 26.9498 28.4855 26.9974Z" fill="#B11A31"/>
<path d="M38.5379 10.56C39.682 10.4517 40.5217 9.43647 40.4135 8.29235C40.3052 7.14823 39.2899 6.30851 38.1458 6.41677C37.0017 6.52503 36.162 7.54028 36.2702 8.6844C36.3785 9.82852 37.3938 10.6682 38.5379 10.56Z" fill="#84B320"/>
<path d="M42.3113 48.746C43.4554 48.6378 44.2952 47.6225 44.1869 46.4784C44.0786 45.3343 43.0634 44.4945 41.9193 44.6028C40.7751 44.7111 39.9354 45.7263 40.0437 46.8704C40.1519 48.0146 41.1672 48.8543 42.3113 48.746Z" fill="#F4C23F"/>
<path d="M7.87186 32.5961C9.01598 32.4879 9.8557 31.4726 9.74744 30.3285C9.63918 29.1844 8.62393 28.3446 7.47981 28.4529C6.33569 28.5612 5.49597 29.5764 5.60423 30.7205C5.71249 31.8646 6.72774 32.7044 7.87186 32.5961Z" fill="#67BAEB"/>
<path d="M39.0895 9.888C38.7172 9.92279 38.3424 9.8566 38.0044 9.69638C37.6665 9.53616 37.3781 9.28783 37.1693 8.97753C36.9606 8.66722 36.8394 8.3064 36.8184 7.93302C36.7974 7.55964 36.8774 7.18751 37.05 6.85575C36.8065 7.04808 36.6091 7.29243 36.4722 7.57091C36.3353 7.8494 36.2625 8.15497 36.259 8.46525C36.2555 8.77553 36.3214 9.08266 36.452 9.36417C36.5825 9.64567 36.7744 9.89441 37.0135 10.0922C37.2526 10.29 37.5329 10.4317 37.8339 10.5072C38.1349 10.5826 38.4489 10.5898 38.7531 10.5281C39.0572 10.4665 39.3437 10.3376 39.5915 10.1509C39.8394 9.96427 40.0424 9.72452 40.1856 9.44926C39.8706 9.69876 39.4897 9.8512 39.0895 9.888Z" fill="#4B7D27"/>
<path d="M42.8653 48.0761C42.4927 48.1117 42.1174 48.0461 41.779 47.8861C41.4406 47.7261 41.1517 47.4777 40.9428 47.1671C40.7339 46.8565 40.6128 46.4953 40.5921 46.1216C40.5715 45.7479 40.6522 45.3755 40.8257 45.0438C40.5815 45.2358 40.3833 45.48 40.2457 45.7585C40.1082 46.0371 40.0347 46.3429 40.0308 46.6535C40.0268 46.9641 40.0925 47.2717 40.2229 47.5536C40.3533 47.8356 40.5452 48.0847 40.7845 48.2828C41.0238 48.4809 41.3044 48.6229 41.6058 48.6984C41.9071 48.7739 42.2215 48.781 42.526 48.7191C42.8304 48.6572 43.1171 48.528 43.365 48.3408C43.613 48.1537 43.8159 47.9134 43.9589 47.6376C43.6446 47.8867 43.2646 48.039 42.8653 48.0761Z" fill="#F4A93F"/>
<path d="M8.42484 31.9261C8.05233 31.9613 7.6772 31.8955 7.33895 31.7355C7.00071 31.5755 6.71187 31.3272 6.50285 31.0169C6.29383 30.7065 6.17236 30.3455 6.15123 29.972C6.13011 29.5984 6.21011 29.226 6.38281 28.8941C6.13872 29.0862 5.94075 29.3306 5.80343 29.6093C5.66611 29.8879 5.59293 30.1938 5.58925 30.5044C5.58557 30.815 5.65148 31.1225 5.78216 31.4044C5.91283 31.6862 6.10495 31.9352 6.34442 32.1331C6.58388 32.331 6.86462 32.4728 7.16603 32.548C7.46743 32.6232 7.78186 32.63 8.08623 32.5679C8.3906 32.5057 8.6772 32.3762 8.92499 32.1889C9.17278 32.0015 9.37547 31.761 9.5182 31.4851C9.20417 31.7349 8.82432 31.8881 8.42484 31.9261Z" fill="#46A1F8"/>
<path d="M39.3946 8.82903C39.9379 8.77762 40.3366 8.2955 40.2852 7.75218C40.2338 7.20886 39.7517 6.81009 39.2084 6.8615C38.6651 6.91291 38.2663 7.39504 38.3177 7.93836C38.3691 8.48167 38.8512 8.88044 39.3946 8.82903Z" fill="#BDDD2A"/>
<path d="M43.0365 46.8772C43.6058 46.8234 44.0237 46.3182 43.9698 45.7488C43.9159 45.1795 43.4107 44.7617 42.8414 44.8155C42.2721 44.8694 41.8542 45.3746 41.9081 45.9439C41.962 46.5133 42.4672 46.9311 43.0365 46.8772Z" fill="#FAD564"/>
<path d="M8.38594 30.2422C8.86631 30.1968 9.21887 29.7705 9.17342 29.2901C9.12797 28.8098 8.7017 28.4572 8.22134 28.5027C7.74098 28.5481 7.38841 28.9744 7.43386 29.4547C7.47932 29.9351 7.90558 30.2877 8.38594 30.2422Z" fill="#83D0FB"/>
</g>
<defs>
<clipPath id="clip0_389_601">
<rect width="51.0259" height="51.0259" fill="white" transform="translate(0.871094 5.67871) rotate(-5.40549)"/>
</clipPath>
</defs>
</svg>
