<svg width="16" height="4" viewBox="0 0 16 4" fill="none" xmlns="http://www.w3.org/2000/svg">
<path d="M3.83333 2.00016C3.83333 2.44219 3.65774 2.86611 3.34518 3.17867C3.03262 3.49123 2.60869 3.66683 2.16667 3.66683C1.72464 3.66683 1.30072 3.49123 0.988155 3.17867C0.675595 2.86611 0.5 2.44219 0.5 2.00016C0.5 1.55814 0.675595 1.13421 0.988155 0.821652C1.30072 0.509091 1.72464 0.333496 2.16667 0.333496C2.60869 0.333496 3.03262 0.509091 3.34518 0.821652C3.65774 1.13421 3.83333 1.55814 3.83333 2.00016ZM9.66667 2.00016C9.66667 2.44219 9.49107 2.86611 9.17851 3.17867C8.86595 3.49123 8.44203 3.66683 8 3.66683C7.55797 3.66683 7.13405 3.49123 6.82149 3.17867C6.50893 2.86611 6.33333 2.44219 6.33333 2.00016C6.33333 1.55814 6.50893 1.13421 6.82149 0.821652C7.13405 0.509091 7.55797 0.333496 8 0.333496C8.44203 0.333496 8.86595 0.509091 9.17851 0.821652C9.49107 1.13421 9.66667 1.55814 9.66667 2.00016ZM15.5 2.00016C15.5 2.44219 15.3244 2.86611 15.0118 3.17867C14.6993 3.49123 14.2754 3.66683 13.8333 3.66683C13.3913 3.66683 12.9674 3.49123 12.6548 3.17867C12.3423 2.86611 12.1667 2.44219 12.1667 2.00016C12.1667 1.55814 12.3423 1.13421 12.6548 0.821652C12.9674 0.509091 13.3913 0.333496 13.8333 0.333496C14.2754 0.333496 14.6993 0.509091 15.0118 0.821652C15.3244 1.13421 15.5 1.55814 15.5 2.00016Z" fill="#303030"/>
</svg>
