<svg width="1377" height="982" viewBox="0 0 1377 982" fill="none" xmlns="http://www.w3.org/2000/svg">
<rect width="1377" height="982" rx="32" fill="url(#paint0_linear_1170_1764)"/>
<path d="M73.4639 549.435C96.6213 550.626 121.555 550.364 141.817 539.212C157.781 530.5 171.971 513.76 168.067 496.596C166.308 488.817 160.386 480.977 150.452 480.307C149.157 480.241 148.088 481.537 147.569 482.434C145.07 486.166 145.633 490.756 148.696 493.985C151.901 497.208 156.191 499.383 160.962 500.039C176.021 502.472 191.315 496.91 200.115 485.905C200.913 484.871 201.801 482.959 200.733 481.885C199.664 480.81 198.016 482.008 197.346 482.787C191.61 489.91 182.405 494.197 172.403 494.777C167.413 495.254 162.205 494.493 157.645 492.58C154.838 491.21 149.149 487.228 151.256 484.137L148.374 486.265C156.005 486.791 160.941 492.554 162.739 498.586C164.86 505.226 163.128 512.167 159.469 518.072C150.451 532.581 131.845 540.289 113.79 542.858C101.138 544.682 88.2158 544.397 75.4141 543.732C72.6822 543.607 70.16 549.336 73.3284 549.566L73.4639 549.435Z" fill="#001F22"/>
<path d="M1076.06 396.794C1070.81 397.29 1066.13 393.419 1065.63 388.172C1065.14 382.925 1069.01 378.245 1074.25 377.748C1079.5 377.252 1084.18 381.117 1084.68 386.37C1085.17 391.623 1081.31 396.297 1076.06 396.794Z" fill="#DE3226"/>
<path d="M1057.72 440.75C1055.98 440.915 1054.36 440.671 1052.89 440.01C1050.02 438.726 1047.96 435.995 1046.78 431.896C1045.69 428.152 1045.36 423.382 1045.79 417.715C1046.67 406.232 1050.59 392.232 1056.84 378.289C1063.08 364.345 1070.92 352.094 1078.91 343.798C1082.85 339.7 1086.63 336.775 1090.15 335.091C1094 333.255 1097.41 332.977 1100.27 334.261C1103.14 335.546 1105.19 338.27 1106.39 342.369C1107.48 346.113 1107.81 350.883 1107.38 356.55C1106.5 368.033 1102.57 382.039 1096.33 395.983C1090.08 409.926 1082.24 422.171 1074.26 430.473C1070.31 434.566 1066.53 437.497 1063.01 439.174C1061.14 440.068 1059.37 440.593 1057.72 440.75ZM1095.68 336.06C1094.33 336.188 1092.84 336.635 1091.25 337.395C1088.01 338.943 1084.47 341.691 1080.75 345.564C1077.02 349.437 1073.2 354.356 1069.55 360.027C1065.76 365.91 1062.26 372.405 1059.16 379.33C1056.06 386.255 1053.54 393.182 1051.67 399.933C1049.87 406.428 1048.74 412.481 1048.33 417.91C1047.91 423.339 1048.22 427.739 1049.23 431.184C1050.19 434.53 1051.78 436.716 1053.93 437.684C1056.08 438.652 1058.77 438.372 1061.91 436.871C1065.16 435.328 1068.69 432.575 1072.42 428.701C1076.15 424.828 1079.96 419.916 1083.61 414.245C1087.4 408.355 1090.9 401.86 1094 394.935C1097.1 388.01 1099.62 381.083 1101.49 374.338C1103.29 367.838 1104.42 361.791 1104.83 356.356C1105.24 350.92 1104.94 346.532 1103.94 343.081C1102.97 339.735 1101.38 337.549 1099.23 336.588C1098.17 336.112 1096.98 335.936 1095.68 336.06Z" fill="#001F22"/>
<path d="M1057.72 440.75C1055.98 440.915 1054.36 440.671 1052.89 440.01C1050.02 438.726 1047.96 435.995 1046.78 431.896C1045.69 428.152 1045.36 423.382 1045.79 417.715C1046.67 406.232 1050.59 392.232 1056.84 378.289C1063.08 364.345 1070.92 352.094 1078.91 343.798C1082.85 339.7 1086.63 336.775 1090.15 335.091C1094 333.255 1097.41 332.977 1100.27 334.261C1103.14 335.546 1105.19 338.27 1106.39 342.369C1107.48 346.113 1107.81 350.883 1107.38 356.55C1106.5 368.033 1102.57 382.039 1096.33 395.983C1090.08 409.926 1082.24 422.171 1074.26 430.473C1070.31 434.566 1066.53 437.497 1063.01 439.174C1061.14 440.068 1059.37 440.593 1057.72 440.75ZM1095.68 336.06C1094.33 336.188 1092.84 336.635 1091.25 337.395C1088.01 338.943 1084.47 341.691 1080.75 345.564C1077.02 349.437 1073.2 354.356 1069.55 360.027C1065.76 365.91 1062.26 372.405 1059.16 379.33C1056.06 386.255 1053.54 393.182 1051.67 399.933C1049.87 406.428 1048.74 412.481 1048.33 417.91C1047.91 423.339 1048.22 427.739 1049.23 431.184C1050.19 434.53 1051.78 436.716 1053.93 437.684C1056.08 438.652 1058.77 438.372 1061.91 436.871C1065.16 435.328 1068.69 432.575 1072.42 428.701C1076.15 424.828 1079.96 419.916 1083.61 414.245C1087.4 408.355 1090.9 401.86 1094 394.935C1097.1 388.01 1099.62 381.083 1101.49 374.338C1103.29 367.838 1104.42 361.791 1104.83 356.356C1105.24 350.92 1104.94 346.532 1103.94 343.081C1102.97 339.735 1101.38 337.549 1099.23 336.588C1098.17 336.112 1096.98 335.936 1095.68 336.06Z" fill="#001F22"/>
<path d="M1105.76 435.813C1104.16 435.965 1102.39 435.804 1100.44 435.331C1096.66 434.396 1092.36 432.3 1087.67 429.095C1078.16 422.589 1068 412.188 1059.04 399.811C1050.09 387.434 1043.41 374.515 1040.21 363.45C1038.64 357.991 1037.99 353.251 1038.29 349.363C1038.63 345.107 1040.09 342.017 1042.63 340.176C1045.18 338.335 1048.57 337.924 1052.71 338.941C1056.5 339.869 1060.8 341.965 1065.49 345.176C1075 351.676 1085.16 362.076 1094.11 374.461C1103.06 386.845 1109.75 399.756 1112.95 410.816C1114.53 416.28 1115.17 421.02 1114.86 424.903C1114.53 429.159 1113.07 432.247 1110.53 434.089C1109.17 435.07 1107.58 435.645 1105.76 435.813ZM1047.65 340.995C1046.28 341.124 1045.1 341.537 1044.13 342.243C1042.22 343.627 1041.11 346.088 1040.83 349.564C1040.56 353.143 1041.17 357.578 1042.66 362.744C1044.16 367.909 1046.5 373.672 1049.58 379.666C1052.79 385.892 1056.67 392.169 1061.11 398.316C1065.55 404.463 1070.3 410.115 1075.21 415.104C1079.93 419.918 1084.61 423.912 1089.11 426.987C1093.61 430.063 1097.56 431.999 1101.05 432.854C1104.54 433.708 1107.12 433.406 1109.03 432.022C1110.94 430.638 1112.05 428.177 1112.32 424.701C1112.6 421.122 1111.99 416.686 1110.5 411.521C1109 406.356 1106.66 400.593 1103.57 394.599C1100.37 388.373 1096.49 382.102 1092.05 375.949C1087.61 369.795 1082.86 364.157 1077.95 359.161C1073.22 354.353 1068.55 350.353 1064.05 347.277C1059.56 344.202 1055.6 342.272 1052.11 341.418C1050.45 341.011 1048.96 340.871 1047.65 340.995Z" fill="#001F22"/>
<path d="M1077.49 408.782C1062.76 410.175 1048.74 409.473 1037.88 406.788C1032.37 405.421 1027.94 403.612 1024.72 401.401C1021.21 398.987 1019.26 396.176 1018.94 393.057C1018.62 389.938 1019.96 386.784 1022.91 383.701C1025.61 380.886 1029.57 378.212 1034.7 375.756C1045.08 370.773 1059.17 367.174 1074.37 365.613C1089.57 364.053 1104.1 364.715 1115.27 367.479C1120.79 368.845 1125.22 370.66 1128.43 372.865C1131.95 375.285 1133.9 378.089 1134.22 381.215C1134.54 384.34 1133.2 387.481 1130.25 390.564C1127.55 393.381 1123.58 396.054 1118.46 398.51C1108.08 403.493 1093.99 407.092 1078.79 408.659L1077.49 408.782ZM1074.63 368.149C1067.08 368.921 1059.82 370.204 1053.04 371.959C1046.51 373.646 1040.71 375.698 1035.8 378.058C1030.88 380.418 1027.23 382.876 1024.75 385.466C1022.27 388.057 1021.24 390.446 1021.48 392.792C1021.72 395.137 1023.3 397.331 1026.17 399.299C1029.05 401.268 1033.28 403.024 1038.5 404.31C1043.72 405.595 1049.88 406.453 1056.62 406.775C1063.61 407.119 1070.99 406.894 1078.53 406.123C1086.07 405.351 1093.34 404.062 1100.12 402.307C1106.65 400.62 1112.45 398.567 1117.36 396.214C1122.27 393.861 1125.93 391.396 1128.41 388.799C1130.89 386.203 1131.92 383.819 1131.68 381.474C1131.44 379.128 1129.86 376.942 1126.99 374.966C1124.12 372.991 1119.88 371.248 1114.66 369.956C1109.44 368.664 1103.28 367.82 1096.54 367.491C1089.55 367.154 1082.17 367.372 1074.63 368.149Z" fill="#001F22"/>
<path d="M1074.69 382.418C1073.73 382.509 1072.82 382.882 1072.07 383.491C1071.33 384.1 1070.78 384.916 1070.49 385.838C1070.21 386.76 1070.21 387.745 1070.48 388.668C1070.76 389.592 1071.3 390.413 1072.05 391.028C1072.79 391.642 1073.7 392.023 1074.66 392.121C1075.62 392.219 1076.58 392.03 1077.43 391.579C1078.29 391.128 1078.99 390.434 1079.44 389.586C1079.9 388.737 1080.1 387.772 1080.01 386.812C1079.88 385.525 1079.26 384.339 1078.26 383.514C1077.26 382.69 1075.98 382.296 1074.69 382.418Z" fill="#B11A31"/>
<path d="M1100.43 340.334C1103.36 340.057 1105.51 337.457 1105.23 334.528C1104.96 331.599 1102.36 329.449 1099.43 329.726C1096.5 330.003 1094.35 332.603 1094.63 335.532C1094.9 338.461 1097.5 340.611 1100.43 340.334Z" fill="#84B320"/>
<path d="M1110.09 438.098C1113.02 437.821 1115.17 435.222 1114.89 432.293C1114.62 429.364 1112.02 427.214 1109.09 427.491C1106.16 427.768 1104.01 430.367 1104.29 433.296C1104.56 436.226 1107.16 438.376 1110.09 438.098Z" fill="#F4C23F"/>
<path d="M1021.92 396.751C1024.85 396.474 1027 393.874 1026.72 390.945C1026.44 388.016 1023.84 385.866 1020.91 386.143C1017.98 386.42 1015.83 389.02 1016.11 391.949C1016.39 394.878 1018.99 397.028 1021.92 396.751Z" fill="#67BAEB"/>
<path d="M1101.84 338.613C1100.89 338.702 1099.93 338.533 1099.07 338.122C1098.2 337.712 1097.46 337.076 1096.93 336.282C1096.39 335.488 1096.08 334.564 1096.03 333.608C1095.98 332.652 1096.18 331.699 1096.62 330.85C1096 331.342 1095.49 331.968 1095.14 332.681C1094.79 333.394 1094.61 334.176 1094.6 334.97C1094.59 335.765 1094.76 336.551 1095.09 337.272C1095.43 337.993 1095.92 338.629 1096.53 339.136C1097.14 339.642 1097.86 340.005 1098.63 340.198C1099.4 340.391 1100.2 340.41 1100.98 340.252C1101.76 340.094 1102.49 339.764 1103.13 339.286C1103.76 338.808 1104.28 338.195 1104.65 337.49C1103.84 338.129 1102.87 338.519 1101.84 338.613Z" fill="#4B7D27"/>
<path d="M1111.51 436.383C1110.56 436.474 1109.6 436.306 1108.73 435.897C1107.86 435.487 1107.12 434.851 1106.59 434.056C1106.05 433.261 1105.74 432.336 1105.69 431.379C1105.64 430.422 1105.85 429.469 1106.29 428.62C1105.66 429.111 1105.16 429.736 1104.8 430.45C1104.45 431.163 1104.26 431.946 1104.25 432.741C1104.24 433.536 1104.41 434.324 1104.75 435.045C1105.08 435.767 1105.57 436.405 1106.18 436.912C1106.8 437.42 1107.52 437.783 1108.29 437.976C1109.06 438.17 1109.86 438.188 1110.64 438.029C1111.42 437.871 1112.16 437.54 1112.79 437.061C1113.43 436.582 1113.95 435.966 1114.31 435.26C1113.51 435.898 1112.53 436.288 1111.51 436.383Z" fill="#F4A93F"/>
<path d="M1023.34 395.036C1022.38 395.126 1021.42 394.957 1020.56 394.548C1019.69 394.138 1018.95 393.502 1018.42 392.708C1017.88 391.913 1017.57 390.989 1017.52 390.033C1017.46 389.076 1017.67 388.123 1018.11 387.273C1017.48 387.765 1016.98 388.391 1016.63 389.104C1016.27 389.817 1016.09 390.601 1016.08 391.396C1016.07 392.191 1016.24 392.978 1016.57 393.7C1016.91 394.422 1017.4 395.059 1018.01 395.566C1018.62 396.072 1019.34 396.435 1020.12 396.628C1020.89 396.82 1021.69 396.838 1022.47 396.679C1023.25 396.52 1023.98 396.188 1024.62 395.708C1025.25 395.229 1025.77 394.613 1026.14 393.907C1025.33 394.546 1024.36 394.938 1023.34 395.036Z" fill="#46A1F8"/>
<path d="M1102.62 335.902C1104.02 335.77 1105.04 334.536 1104.9 333.145C1104.77 331.754 1103.54 330.733 1102.15 330.864C1100.76 330.996 1099.74 332.23 1099.87 333.621C1100 335.012 1101.23 336.033 1102.62 335.902Z" fill="#BDDD2A"/>
<path d="M1111.95 433.314C1113.41 433.176 1114.48 431.883 1114.34 430.425C1114.2 428.967 1112.91 427.897 1111.45 428.035C1109.99 428.173 1108.92 429.467 1109.06 430.924C1109.2 432.382 1110.49 433.452 1111.95 433.314Z" fill="#FAD564"/>
<path d="M1023.23 390.724C1024.46 390.608 1025.37 389.517 1025.25 388.287C1025.13 387.057 1024.04 386.154 1022.81 386.271C1021.58 386.387 1020.68 387.478 1020.8 388.708C1020.91 389.938 1022 390.841 1023.23 390.724Z" fill="#83D0FB"/>
<g clip-path="url(#clip0_1170_1764)">
<path d="M365.307 369.98C366.775 366.051 366.378 361.707 364.273 358.126C364.639 357.548 364.929 356.97 365.151 356.377C366.98 351.483 364.88 346.065 360.44 343.608C360.759 343.086 361.016 342.554 361.221 342.004C363.169 336.794 360.654 331.002 355.611 328.809C355.531 328.764 355.45 328.72 355.361 328.687C355.319 328.671 355.275 328.66 355.231 328.645C355.188 328.628 355.149 328.607 355.105 328.591C354.615 328.408 354.106 328.267 353.552 328.164C354.439 323.032 351.598 317.902 346.592 316.03C340.915 313.909 334.571 316.801 332.449 322.478L306.115 392.932C303.43 400.117 307.091 408.146 314.275 410.832C319.042 412.613 324.332 411.651 328.149 408.409C328.619 408.711 329.085 408.963 329.567 409.18C332.596 410.537 335.997 410.65 339.114 409.468C342.231 408.286 344.701 405.96 346.069 402.919C346.639 401.652 346.98 400.295 347.091 398.87C352.224 397.51 356.31 393.847 358.176 388.857C359.528 385.239 359.523 381.279 358.178 377.622C361.478 376.093 364.045 373.357 365.307 369.98ZM354.97 387.662C353.579 391.385 350.611 394.169 346.857 395.372C345.987 391.154 342.996 387.549 338.873 386.008C337.988 385.678 337.002 386.127 336.671 387.012C336.34 387.897 336.79 388.884 337.675 389.215C341.246 390.55 343.662 394.002 343.698 397.81C343.702 399.137 343.456 400.386 342.947 401.517C341.954 403.724 340.163 405.411 337.901 406.269C335.638 407.127 333.172 407.052 330.972 406.059C330.353 405.78 329.748 405.398 329.067 404.858C328.373 404.303 327.37 404.374 326.758 405.018C323.854 408.079 319.423 409.103 315.472 407.626C310.055 405.601 307.296 399.547 309.32 394.131L335.654 323.678C337.114 319.769 341.483 317.777 345.392 319.238C349.023 320.595 350.988 324.45 350.041 328.172C346.471 328.757 343.3 331.176 341.945 334.801C341.614 335.687 342.064 336.672 342.949 337.003C343.834 337.334 344.82 336.885 345.151 335.999C346.487 332.426 350.448 330.591 354.03 331.851C357.56 333.249 359.347 337.233 358.012 340.805C357.763 341.469 357.381 342.111 356.841 342.768C356.713 342.923 356.615 343.098 356.548 343.286C356.533 343.33 356.52 343.372 356.51 343.412C356.495 343.432 356.485 343.445 356.485 343.445C356.173 343.895 356.096 344.468 356.276 344.985C356.457 345.502 356.867 345.898 357.399 346.059C357.512 346.094 357.629 346.121 357.836 346.167C361.452 347.518 363.294 351.561 361.943 355.176C361.714 355.788 361.37 356.374 360.86 357.024C360.389 357.621 360.37 358.458 360.813 359.077C362.759 361.801 363.261 365.265 362.21 368.421C362.208 368.425 362.205 368.429 362.204 368.433C360.194 373.809 354.186 376.549 348.81 374.54C343.434 372.53 340.694 366.521 342.703 361.145C343.035 360.259 342.584 359.273 341.7 358.942C340.815 358.611 339.828 359.06 339.497 359.946C336.827 367.091 340.466 375.076 347.611 377.746C349.993 378.636 352.463 378.811 354.804 378.403C356.021 381.403 356.084 384.683 354.97 387.662Z" fill="#001F22"/>
<path d="M321.049 306.483C316.043 304.612 310.534 306.622 307.839 311.078C307.352 310.792 306.875 310.564 306.386 310.381C306.343 310.365 306.299 310.355 306.255 310.339C306.213 310.322 306.173 310.301 306.129 310.285C306.041 310.252 305.951 310.232 305.861 310.214C300.616 308.562 294.919 311.284 292.972 316.495C292.767 317.044 292.613 317.615 292.51 318.217C287.546 317.16 282.408 319.872 280.579 324.766C280.358 325.358 280.197 325.985 280.094 326.663C276.156 327.984 273.007 331.004 271.539 334.932C270.277 338.309 270.418 342.057 271.904 345.378C268.489 347.255 265.888 350.242 264.536 353.86C262.671 358.85 263.353 364.295 266.335 368.688C265.483 369.836 264.852 371.085 264.452 372.417C263.49 375.608 263.828 378.983 265.406 381.92C266.982 384.858 269.616 387.001 272.801 387.965C273.299 388.115 273.822 388.229 274.377 388.311C275.13 393.263 278.493 397.459 283.26 399.241C290.444 401.927 298.474 398.266 301.16 391.082L327.494 320.626C329.618 314.949 326.726 308.605 321.049 306.483ZM297.956 389.882C295.932 395.298 289.878 398.058 284.461 396.033C280.51 394.557 277.837 390.878 277.654 386.663C277.623 385.96 277.171 385.369 276.543 385.134C276.378 385.073 276.201 385.034 276.016 385.027C275.148 384.989 274.441 384.881 273.79 384.685C271.469 383.987 269.568 382.43 268.423 380.299C267.278 378.168 267.033 375.719 267.731 373.402C268.113 372.132 268.797 370.956 269.766 369.906C269.78 369.891 269.786 369.869 269.799 369.854C272.454 367.123 276.293 366.248 279.897 367.595C280.783 367.926 281.769 367.476 282.1 366.591C282.43 365.706 281.982 364.72 281.096 364.388C276.887 362.815 272.277 363.537 268.798 366.174C266.765 362.808 266.355 358.771 267.743 355.057C268.856 352.079 271.057 349.645 273.941 348.179C275.44 350.022 277.421 351.511 279.802 352.401C286.947 355.072 294.932 351.432 297.602 344.287C297.933 343.401 297.484 342.416 296.598 342.084C295.712 341.753 294.727 342.202 294.396 343.088C292.386 348.465 286.378 351.204 281.001 349.195C275.624 347.185 272.885 341.176 274.894 335.799C274.895 335.797 274.895 335.795 274.896 335.793C276.17 332.718 278.822 330.43 282.08 329.649C282.82 329.472 283.353 328.829 283.391 328.069C283.432 327.243 283.557 326.575 283.786 325.963C285.134 322.355 289.162 320.512 292.854 321.892C292.861 321.895 292.87 321.898 292.877 321.901C292.982 321.957 293.087 322.012 293.196 322.061C293.702 322.287 294.278 322.257 294.753 321.983C295.23 321.708 295.545 321.222 295.6 320.674C295.6 320.673 295.602 320.658 295.604 320.638C295.621 320.602 295.637 320.569 295.649 320.539C295.726 320.349 295.769 320.147 295.774 319.942C295.798 319.089 295.93 318.353 296.178 317.691C297.513 314.119 301.474 312.282 305.056 313.543C308.587 314.942 310.373 318.925 309.037 322.498C308.706 323.384 309.155 324.369 310.041 324.701C310.928 325.032 311.913 324.583 312.244 323.697C313.599 320.072 312.792 316.166 310.481 313.383C312.207 309.952 316.218 308.331 319.85 309.688C323.759 311.149 325.75 315.518 324.289 319.427L297.956 389.882Z" fill="#001F22"/>
</g>
<defs>
<linearGradient id="paint0_linear_1170_1764" x1="635.5" y1="-137.5" x2="635.5" y2="616" gradientUnits="userSpaceOnUse">
<stop stop-color="#0BB9CD"/>
<stop offset="0.95" stop-color="white"/>
</linearGradient>
<clipPath id="clip0_1170_1764">
<rect width="114.102" height="114.102" fill="white" transform="translate(282.945 284) rotate(20.4942)"/>
</clipPath>
</defs>
</svg>
