<svg width="107" height="29" viewBox="0 0 107 29" fill="none" xmlns="http://www.w3.org/2000/svg">
<path fill-rule="evenodd" clip-rule="evenodd" d="M0 10.7797C0 13.9092 0.896528 15.6203 2.81722 17.7648L3.97757 18.7888C4.73712 19.4517 6.00565 20.1824 6.99635 20.5891C8.41507 21.1722 10.0906 21.4969 11.8051 21.56H13.0464C14.7631 21.4969 16.4675 21.1722 17.9438 20.5817C18.1664 20.4924 18.308 20.3938 18.55 20.3455C18.617 20.4549 18.6637 20.5649 18.75 20.679C19.0154 21.0306 19.4746 21.2567 20.017 21.2567H25.0063V0.303293H19.9579C19.1384 0.303293 18.8333 0.700527 18.5493 1.16352L17.3951 0.741459C15.7959 0.120781 14.0067 0 12.209 0C9.55363 0 7.12787 0.638795 5.19006 1.89424C4.76592 2.16935 3.87484 2.78869 3.50518 3.12419C3.35264 3.26242 3.31373 3.34294 3.15575 3.48049C3.01411 3.60396 2.91138 3.67441 2.78297 3.81667C2.23821 4.41789 1.97516 4.69501 1.52846 5.36668C0.465385 6.96434 0 8.61099 0 10.7803L0 10.7797ZM10.7412 8.2057C10.7412 7.9326 10.4828 7.634 10.2883 7.52195C10.4548 7.25086 10.5303 7.09116 10.8416 6.92475C11.5685 6.53691 12.686 6.48659 13.223 7.09116C13.946 7.90509 13.2705 8.44458 13.5732 8.93844C14.2262 8.80692 13.9693 7.82524 13.9693 7.47296C14.9515 7.27569 15.6737 7.77626 15.8955 8.59622C15.7328 8.67003 15.2721 8.78947 15.2721 9.23099C15.2721 9.69868 15.8262 8.93777 16.0651 8.93777C16.3679 8.93777 16.6262 8.95655 16.7718 9.25649C16.9352 9.59468 16.8768 9.79531 16.6831 10.1046C16.522 10.3623 16.2286 10.5488 15.8387 10.5488H12.4401C12.0206 10.5488 12.1 9.73626 12.1 9.66983C12.1 8.9854 11.2035 9.54838 11.7599 10.5488L10.2167 10.577C10.0003 10.5884 10.0322 10.5488 9.77776 10.5488C9.26023 10.5488 8.28355 10.6991 7.92011 10.4408C7.5629 10.1865 7.56835 9.91743 7.56835 9.57186C7.56835 9.39942 7.90377 8.78679 8.38628 8.95991C8.6073 9.03909 8.74115 9.129 8.88746 9.26589C9.15906 9.5202 8.97929 9.55576 9.38164 9.47457C9.38164 9.08136 9.34662 9.13839 9.1326 8.90757C8.99019 8.75391 8.83765 8.68345 8.64543 8.59555C8.7038 8.37882 8.67033 8.36674 8.77306 8.21711C8.97929 7.91583 9.39176 7.69641 9.77854 7.61924C9.78866 7.62662 9.80344 7.63602 9.80967 7.64071L9.87115 7.68567C10.4634 8.14598 10.2564 8.28957 10.233 8.54456L10.4579 8.64521C10.6206 8.55127 10.7412 8.43854 10.7412 8.2057ZM13.6954 13.3436C13.6954 13.6167 13.9538 13.9153 14.1483 14.0273C13.9818 14.2984 13.9071 14.4581 13.595 14.6245C12.8681 15.0124 11.7506 15.0627 11.2136 14.4581C10.4906 13.6442 11.1661 13.1047 10.8634 12.6108C10.2105 12.7417 10.4665 13.724 10.4665 14.0763C9.48437 14.2736 8.76216 13.773 8.54037 12.953C8.70302 12.8792 9.16373 12.7598 9.16373 12.3183C9.16373 11.8506 8.60963 12.6115 8.37071 12.6115C8.06798 12.6115 7.8096 12.5927 7.66485 12.2928C7.50142 11.9546 7.55979 11.754 7.75357 11.4446C7.91466 11.187 8.20806 11.0004 8.59796 11.0004H11.9965C12.416 11.0004 12.3366 11.813 12.3366 11.8794C12.3366 12.5639 13.2331 12.0009 12.6767 11.0004L14.2199 10.9722C14.4363 10.9608 14.4044 11.0004 14.6589 11.0004C15.1764 11.0004 16.1531 10.8501 16.5165 11.1085C16.8737 11.3628 16.8683 11.6318 16.8683 11.9774C16.8683 12.1499 16.5329 12.7625 16.0503 12.5894C15.8293 12.5102 15.6955 12.4203 15.5492 12.2834C15.2776 12.0291 15.4566 11.9942 15.055 12.0747C15.055 12.4679 15.09 12.4109 15.304 12.6417C15.4464 12.7954 15.599 12.8658 15.7912 12.9537C15.7328 13.1705 15.7663 13.1825 15.6636 13.3322C15.4573 13.6334 15.0449 13.8529 14.6581 13.93C14.648 13.9226 14.6332 13.9126 14.627 13.9086L14.5655 13.8636C13.9732 13.4033 14.1802 13.2597 14.2036 13.0047L13.9787 12.9041C13.816 12.998 13.6954 13.1107 13.6954 13.3436Z" fill="#0BB9CD"/>
<path fill-rule="evenodd" clip-rule="evenodd" d="M19.174 22.7739H25.0497V28.6291H19.174C18.6977 28.6291 18.3086 28.2936 18.3086 27.8829V23.5201C18.3086 23.1094 18.6977 22.7739 19.174 22.7739Z" fill="#0BB9CD"/>
<path d="M41.0508 21.9449L49.4996 1.40141H51.8465L60.2366 21.9449H56.5989L50.0276 5.30467H51.2597L44.6298 21.9449H41.0508ZM45.2165 17.9829V15.0481H56.1002V17.9829H45.2165Z" fill="#0BB9CD"/>
<path d="M67.8002 22.2384C66.529 22.2384 65.3751 21.9155 64.3386 21.2699C63.3216 20.6242 62.51 19.7536 61.9037 18.6579C61.317 17.5427 61.0236 16.3003 61.0236 14.9308C61.0236 13.5416 61.317 12.2992 61.9037 11.2036C62.51 10.0884 63.3216 9.20793 64.3386 8.56228C65.3751 7.89706 66.529 7.56445 67.8002 7.56445C68.8759 7.56445 69.8244 7.79924 70.6458 8.2688C71.4868 8.7188 72.1517 9.34489 72.6407 10.1471C73.1296 10.9492 73.3741 11.859 73.3741 12.8764V16.9264C73.3741 17.9438 73.1296 18.8536 72.6407 19.6558C72.1713 20.4579 71.5161 21.0938 70.6752 21.5634C69.8342 22.0134 68.8759 22.2384 67.8002 22.2384ZM68.3283 19.1862C69.5213 19.1862 70.4796 18.7851 71.2032 17.9829C71.9464 17.1808 72.318 16.1536 72.318 14.9014C72.318 14.0601 72.1517 13.3166 71.8193 12.671C71.4868 12.0253 71.0174 11.5264 70.4111 11.1742C69.8244 10.8025 69.1301 10.6166 68.3283 10.6166C67.546 10.6166 66.8517 10.8025 66.2454 11.1742C65.6587 11.5264 65.1893 12.0253 64.8373 12.671C64.5048 13.3166 64.3386 14.0601 64.3386 14.9014C64.3386 15.7427 64.5048 16.4862 64.8373 17.1318C65.1893 17.7775 65.6587 18.2862 66.2454 18.6579C66.8517 19.0101 67.546 19.1862 68.3283 19.1862ZM72.1126 27.8145V18.4818L72.67 15.0775L72.1126 11.6438V7.85793H75.3396V27.8145H72.1126Z" fill="#0BB9CD"/>
<path d="M78.9502 21.9449V7.85793H82.1772V21.9449H78.9502ZM80.5637 5.27532C80.0161 5.27532 79.5565 5.08945 79.1849 4.71771C78.8329 4.34598 78.6569 3.88619 78.6569 3.33837C78.6569 2.79054 78.8329 2.33076 79.1849 1.95902C79.5565 1.58728 80.0161 1.40141 80.5637 1.40141C81.1309 1.40141 81.5905 1.58728 81.9425 1.95902C82.2945 2.33076 82.4705 2.79054 82.4705 3.33837C82.4705 3.88619 82.2945 4.34598 81.9425 4.71771C81.5905 5.08945 81.1309 5.27532 80.5637 5.27532Z" fill="#0BB9CD"/>
<path d="M85.7965 21.9449V0.814453H89.0235V21.9449H85.7965Z" fill="#0BB9CD"/>
<path d="M98.5114 22.2384C97.2402 22.2384 96.0863 21.9155 95.0498 21.2699C94.0328 20.6242 93.2211 19.7536 92.6149 18.6579C92.0281 17.5427 91.7348 16.3003 91.7348 14.9308C91.7348 13.5416 92.0281 12.2992 92.6149 11.2036C93.2211 10.0884 94.0328 9.20793 95.0498 8.56228C96.0863 7.89706 97.2402 7.56445 98.5114 7.56445C99.5871 7.56445 100.536 7.79924 101.357 8.2688C102.198 8.7188 102.863 9.34489 103.352 10.1471C103.841 10.9492 104.085 11.859 104.085 12.8764V16.9264C104.085 17.9438 103.841 18.8536 103.352 19.6558C102.882 20.4579 102.227 21.0938 101.386 21.5634C100.545 22.0134 99.5871 22.2384 98.5114 22.2384ZM99.0395 19.1862C100.232 19.1862 101.191 18.7851 101.914 17.9829C102.658 17.1808 103.029 16.1536 103.029 14.9014C103.029 14.0601 102.863 13.3166 102.53 12.671C102.198 12.0253 101.729 11.5264 101.122 11.1742C100.536 10.8025 99.8413 10.6166 99.0395 10.6166C98.2572 10.6166 97.5629 10.8025 96.9566 11.1742C96.3699 11.5264 95.9005 12.0253 95.5485 12.671C95.216 13.3166 95.0498 14.0601 95.0498 14.9014C95.0498 15.7427 95.216 16.4862 95.5485 17.1318C95.9005 17.7775 96.3699 18.2862 96.9566 18.6579C97.5629 19.0101 98.2572 19.1862 99.0395 19.1862ZM102.824 21.9449V18.159L103.381 14.7253L102.824 11.321V7.85793H106.051V21.9449H102.824Z" fill="#0BB9CD"/>
</svg>
