<svg width="21" height="22" viewBox="0 0 21 22" fill="none" xmlns="http://www.w3.org/2000/svg">
<path d="M17.2996 6.55C17.2163 6.55 17.1454 6.53333 17.0871 6.5C17.0288 6.46667 16.9829 6.40833 16.9496 6.325L16.2246 4.625L14.3996 3.825C14.3163 3.79167 14.2579 3.74583 14.2246 3.6875C14.1913 3.62917 14.1746 3.55833 14.1746 3.475C14.1746 3.39167 14.1913 3.32083 14.2246 3.2625C14.2579 3.20417 14.3163 3.15833 14.3996 3.125L16.2246 2.35L16.9496 0.725C16.9829 0.641667 17.0288 0.583333 17.0871 0.55C17.1454 0.516667 17.2163 0.5 17.2996 0.5C17.3829 0.5 17.4538 0.516667 17.5121 0.55C17.5704 0.583333 17.6163 0.641667 17.6496 0.725L18.3746 2.35L20.1996 3.125C20.2829 3.15833 20.3413 3.20417 20.3746 3.2625C20.4079 3.32083 20.4246 3.39167 20.4246 3.475C20.4246 3.55833 20.4079 3.62917 20.3746 3.6875C20.3413 3.74583 20.2829 3.79167 20.1996 3.825L18.3746 4.625L17.6496 6.325C17.6163 6.40833 17.5704 6.46667 17.5121 6.5C17.4538 6.53333 17.3829 6.55 17.2996 6.55ZM17.2996 21.45C17.2329 21.45 17.1663 21.4333 17.0996 21.4C17.0329 21.3667 16.9829 21.3083 16.9496 21.225L16.2246 19.6L14.4246 18.825C14.3413 18.7917 14.2829 18.7458 14.2496 18.6875C14.2163 18.6292 14.1996 18.5583 14.1996 18.475C14.1996 18.3917 14.2163 18.3208 14.2496 18.2625C14.2829 18.2042 14.3413 18.1583 14.4246 18.125L16.2246 17.35L16.9496 15.625C16.9829 15.5417 17.0288 15.4833 17.0871 15.45C17.1454 15.4167 17.2163 15.4 17.2996 15.4C17.3829 15.4 17.4538 15.4167 17.5121 15.45C17.5704 15.4833 17.6163 15.5417 17.6496 15.625L18.3746 17.35L20.1746 18.125C20.2579 18.1583 20.3163 18.2042 20.3496 18.2625C20.3829 18.3208 20.3996 18.3917 20.3996 18.475C20.3996 18.5583 20.3829 18.6292 20.3496 18.6875C20.3163 18.7458 20.2579 18.7917 20.1746 18.825L18.3746 19.6L17.6496 21.225C17.6163 21.3083 17.5663 21.3667 17.4996 21.4C17.4329 21.4333 17.3663 21.45 17.2996 21.45ZM6.32461 17.125C6.19128 17.125 6.06211 17.0875 5.93711 17.0125C5.81211 16.9375 5.71628 16.8333 5.64961 16.7L4.02461 13.225L0.524609 11.65C0.391276 11.5833 0.287109 11.4875 0.212109 11.3625C0.137109 11.2375 0.0996094 11.1083 0.0996094 10.975C0.0996094 10.8417 0.137109 10.7125 0.212109 10.5875C0.287109 10.4625 0.391276 10.3667 0.524609 10.3L4.02461 8.725L5.64961 5.275C5.71628 5.125 5.81211 5.0125 5.93711 4.9375C6.06211 4.8625 6.19128 4.825 6.32461 4.825C6.45794 4.825 6.58711 4.8625 6.71211 4.9375C6.83711 5.0125 6.93294 5.11667 6.99961 5.25L8.64961 8.725L12.1246 10.3C12.2746 10.3667 12.3871 10.4625 12.4621 10.5875C12.5371 10.7125 12.5746 10.8417 12.5746 10.975C12.5746 11.1083 12.5371 11.2375 12.4621 11.3625C12.3871 11.4875 12.2746 11.5833 12.1246 11.65L8.64961 13.225L6.99961 16.7C6.93294 16.85 6.83711 16.9583 6.71211 17.025C6.58711 17.0917 6.45794 17.125 6.32461 17.125Z" fill="white"/>
</svg>
