<svg width="51" height="51" viewBox="0 0 51 51" fill="none" xmlns="http://www.w3.org/2000/svg">
<rect width="51" height="51" rx="8" fill="#0BB9CD"/>
<path d="M23.6826 11.197C25.0296 10.0909 26.9704 10.0909 28.3174 11.197L28.9388 10.4403L28.3174 11.197C29.4173 12.1003 30.8176 12.5552 32.2384 12.471C33.9783 12.3679 35.5485 13.5087 35.988 15.1952C36.347 16.5725 37.2124 17.7637 38.4114 18.5307C39.8795 19.4699 40.4793 21.3158 39.8436 22.9386C39.3244 24.2638 39.3244 25.7362 39.8436 27.0614C40.4793 28.6842 39.8795 30.5301 38.4114 31.4693C37.2124 32.2363 36.347 33.4275 35.988 34.8048C35.5485 36.4913 33.9783 37.6321 32.2384 37.529C30.8176 37.4448 29.4173 37.8997 28.3174 38.803C26.9704 39.9091 25.0296 39.9091 23.6826 38.803C22.5827 37.8997 21.1824 37.4448 19.7616 37.529C18.0217 37.6321 16.4515 36.4913 16.012 34.8048C15.653 33.4275 14.7876 32.2363 13.5886 31.4693C12.1205 30.5301 11.5207 28.6842 12.1564 27.0614C12.6756 25.7362 12.6756 24.2638 12.1564 22.9386C11.5207 21.3158 12.1205 19.4699 13.5886 18.5307C14.7876 17.7637 15.653 16.5725 16.012 15.1952C16.4515 13.5087 18.0217 12.3679 19.7616 12.471C21.1824 12.5552 22.5827 12.1003 23.6826 11.197Z" stroke="white" stroke-width="2"/>
<path d="M33 21C33 21.2559 32.9023 21.5119 32.707 21.7069L24.707 29.7069C24.5125 29.9031 24.2562 30 24 30C23.7438 30 23.4881 29.9023 23.2931 29.707L19.2931 25.707C19.0978 25.5125 19 25.2562 19 25C19 24.4288 19.4672 24 20 24C20.2559 24 20.5119 24.0977 20.7069 24.293L24 27.5875L31.2937 20.2938C31.4875 20.0978 31.7437 20 32 20C32.5344 20 33 20.4281 33 21Z" fill="white"/>
</svg>
