<svg width="16" height="16" viewBox="0 0 16 16" fill="none" xmlns="http://www.w3.org/2000/svg">
<path d="M8.97997 15.022H6.84416C6.71308 15.0221 6.58662 14.9736 6.48915 14.8859C6.39169 14.7982 6.33012 14.6776 6.31631 14.5472L6.15817 13.0582C5.93741 12.983 5.72174 12.8937 5.51251 12.7907L4.34891 13.7318C4.24707 13.8138 4.11853 13.8553 3.98794 13.8484C3.85736 13.8415 3.73393 13.7866 3.64133 13.6943L2.13102 12.184C2.03869 12.0913 1.9838 11.9679 1.97688 11.8373C1.96996 11.7068 2.01149 11.5782 2.09352 11.4764L3.03494 10.3114C2.93178 10.1022 2.84232 9.88649 2.76713 9.6657L1.27556 9.50649C1.14526 9.49269 1.02468 9.43117 0.937023 9.33379C0.849367 9.2364 0.800839 9.11002 0.800781 8.979V6.84283C0.800839 6.71181 0.849367 6.58543 0.937023 6.48805C1.02468 6.39066 1.14526 6.32914 1.27556 6.31534L2.76465 6.1572C2.83984 5.9364 2.9293 5.72073 3.03247 5.51154L2.09104 4.34652C2.00902 4.24468 1.96748 4.11614 1.9744 3.98555C1.98132 3.85497 2.03621 3.73154 2.12854 3.63894L3.63886 2.12863C3.73146 2.0363 3.85489 1.98141 3.98547 1.97449C4.11605 1.96757 4.24459 2.0091 4.34643 2.09113L5.51145 3.0322C5.72067 2.92921 5.93634 2.83987 6.15711 2.76474L6.31525 1.27565C6.32883 1.14492 6.39045 1.02388 6.48816 0.935968C6.58587 0.84806 6.71273 0.79954 6.84416 0.799806H8.97997C9.11106 0.799776 9.23752 0.848265 9.33498 0.935929C9.43245 1.02359 9.49401 1.14423 9.50782 1.27459L9.66561 2.76368C9.88649 2.83881 10.1023 2.92815 10.3116 3.03114L11.4763 2.09007C11.5781 2.00804 11.7067 1.96651 11.8373 1.97343C11.9678 1.98035 12.0913 2.03524 12.1839 2.12757L13.6942 3.63788C13.7865 3.73048 13.8414 3.85391 13.8483 3.98449C13.8552 4.11507 13.8137 4.24361 13.7317 4.34545L12.7903 5.51047C12.8933 5.71973 12.9827 5.9354 13.0581 6.15613L14.5472 6.31428C14.6774 6.32816 14.7979 6.38971 14.8855 6.48709C14.9731 6.58447 15.0215 6.7108 15.0216 6.84177V8.97794C15.0218 9.10887 14.9737 9.23528 14.8864 9.33285C14.799 9.43042 14.6787 9.49227 14.5486 9.50649L13.0595 9.66464C12.9841 9.88537 12.8947 10.101 12.7917 10.3103L13.7331 11.4753C13.8151 11.5772 13.8567 11.7057 13.8497 11.8363C13.8428 11.9669 13.7879 12.0903 13.6956 12.1829L12.1853 13.6943C12.0927 13.7866 11.9692 13.8415 11.8387 13.8484C11.7081 13.8553 11.5795 13.8138 11.4777 13.7318L10.313 12.7907C10.1037 12.8937 9.88791 12.983 9.66703 13.0582L9.50924 14.5472C9.4954 14.6778 9.43363 14.7987 9.33587 14.8864C9.23811 14.9741 9.1113 15.0224 8.97997 15.022ZM7.32071 13.9607H8.50201L8.64671 12.5965C8.65806 12.4897 8.70154 12.3889 8.7714 12.3073C8.84126 12.2258 8.93422 12.1673 9.03799 12.1397C9.41179 12.04 9.77063 11.891 10.105 11.6964C10.1981 11.6422 10.3055 11.6176 10.413 11.6258C10.5204 11.6341 10.6228 11.6749 10.7065 11.7428L11.7735 12.605L12.6088 11.7697L11.7452 10.7058C11.6773 10.6221 11.6365 10.5198 11.6282 10.4123C11.62 10.3049 11.6446 10.1975 11.6988 10.1044C11.893 9.77022 12.0416 9.41161 12.1407 9.03808C12.1683 8.93425 12.2268 8.84126 12.3084 8.77139C12.39 8.70153 12.491 8.65808 12.5978 8.64679L13.9616 8.50174V7.32045L12.5978 7.17539C12.491 7.16411 12.39 7.12066 12.3084 7.05079C12.2268 6.98092 12.1683 6.88793 12.1407 6.78411C12.0416 6.41045 11.893 6.05172 11.6988 5.71744C11.6446 5.62434 11.62 5.51693 11.6282 5.4095C11.6365 5.30206 11.6773 5.19969 11.7452 5.116L12.6073 4.04898L11.7721 3.21369L10.705 4.07587C10.6213 4.14374 10.519 4.18453 10.4115 4.19281C10.3041 4.20109 10.1967 4.17646 10.1036 4.12222C9.76936 3.92823 9.41077 3.77963 9.03729 3.68034C8.93351 3.65273 8.84056 3.5943 8.77069 3.51275C8.70083 3.4312 8.65735 3.33038 8.646 3.2236L8.50271 1.86117H7.32071L7.17601 3.22537C7.16464 3.33219 7.12111 3.43305 7.05118 3.5146C6.98125 3.59615 6.88821 3.65456 6.78437 3.68211C6.41116 3.78185 6.05292 3.93093 5.71912 4.1254C5.62602 4.17965 5.51861 4.20427 5.41118 4.19599C5.30374 4.18771 5.20138 4.14693 5.11768 4.07905L4.05173 3.21546L3.21679 4.05075L4.07932 5.11777C4.14714 5.2015 4.18786 5.30389 4.19608 5.41132C4.20429 5.51875 4.17961 5.62614 4.12531 5.71921C3.93148 6.05352 3.78289 6.41209 3.68343 6.78552C3.65583 6.88929 3.59739 6.98225 3.51585 7.05211C3.4343 7.12198 3.33348 7.16546 3.2267 7.17681L1.86249 7.32186V8.5028L3.2267 8.64785C3.33348 8.65921 3.4343 8.70269 3.51585 8.77255C3.59739 8.84241 3.65583 8.93537 3.68343 9.03914C3.78287 9.41218 3.93133 9.77039 4.12496 10.1044C4.17926 10.1975 4.20394 10.3048 4.19572 10.4123C4.18751 10.5197 4.14678 10.6221 4.07897 10.7058L3.21679 11.7711L4.05208 12.6064L5.11945 11.7442C5.20314 11.6763 5.30551 11.6355 5.41295 11.6273C5.52038 11.619 5.62779 11.6436 5.72089 11.6978C6.05498 11.8919 6.41346 12.0405 6.78685 12.1397C6.89069 12.1673 6.98372 12.2257 7.05365 12.3072C7.12358 12.3888 7.16711 12.4896 7.17849 12.5965L7.32071 13.9607Z" fill="white"/>
<path d="M7.91153 11.1421C7.27228 11.1421 6.6474 10.9524 6.11591 10.5972C5.58443 10.242 5.17021 9.7372 4.92562 9.14659C4.68104 8.55598 4.61708 7.9061 4.74184 7.27914C4.86659 6.65218 5.17446 6.07629 5.6265 5.6243C6.07855 5.1723 6.65447 4.8645 7.28144 4.73982C7.90842 4.61513 8.55829 4.67916 9.14887 4.92381C9.73946 5.16845 10.2442 5.58273 10.5994 6.11426C10.9545 6.64578 11.1441 7.27068 11.1441 7.90993C11.1431 8.76693 10.8023 9.58856 10.1962 10.1945C9.5902 10.8005 8.76853 11.1413 7.91153 11.1421ZM7.91153 5.7391C7.48219 5.73917 7.06252 5.86654 6.70557 6.10512C6.34863 6.3437 6.07044 6.68276 5.90619 7.07943C5.74194 7.47611 5.699 7.91258 5.7828 8.33365C5.86661 8.75473 6.07339 9.1415 6.377 9.44507C6.68061 9.74863 7.06741 9.95534 7.4885 10.0391C7.9096 10.1228 8.34606 10.0798 8.74271 9.91548C9.13935 9.75117 9.47837 9.47293 9.71689 9.11594C9.95541 8.75896 10.0827 8.33926 10.0827 7.90993C10.0821 7.33433 9.85309 6.7825 9.44605 6.37552C9.039 5.96854 8.48713 5.73966 7.91153 5.7391Z" fill="white"/>
</svg>
