<svg width="16" height="16" viewBox="0 0 16 16" fill="none" xmlns="http://www.w3.org/2000/svg">
<path d="M8.97997 15.023H6.84416C6.71308 15.023 6.58662 14.9745 6.48915 14.8869C6.39169 14.7992 6.33012 14.6786 6.31631 14.5482L6.15817 13.0591C5.93741 12.984 5.72174 12.8947 5.51251 12.7917L4.34891 13.7327C4.24707 13.8148 4.11853 13.8563 3.98794 13.8494C3.85736 13.8425 3.73393 13.7876 3.64133 13.6952L2.13102 12.1849C2.03869 12.0923 1.9838 11.9689 1.97688 11.8383C1.96996 11.7077 2.01149 11.5792 2.09352 11.4774L3.03494 10.3123C2.93178 10.1031 2.84232 9.88747 2.76713 9.66667L1.27556 9.50747C1.14526 9.49367 1.02468 9.43215 0.937023 9.33476C0.849367 9.23737 0.800839 9.111 0.800781 8.97997V6.84381C0.800839 6.71278 0.849367 6.58641 0.937023 6.48902C1.02468 6.39163 1.14526 6.33012 1.27556 6.31631L2.76465 6.15817C2.83984 5.93738 2.9293 5.7217 3.03247 5.51251L2.09104 4.34749C2.00902 4.24565 1.96748 4.11711 1.9744 3.98653C1.98132 3.85595 2.03621 3.73252 2.12854 3.63992L3.63886 2.1296C3.73146 2.03728 3.85489 1.98239 3.98547 1.97546C4.11605 1.96854 4.24459 2.01008 4.34643 2.0921L5.51145 3.03318C5.72067 2.93019 5.93634 2.84084 6.15711 2.76571L6.31525 1.27663C6.32883 1.14589 6.39045 1.02485 6.48816 0.936944C6.58587 0.849036 6.71273 0.800517 6.84416 0.800782H8.97997C9.11106 0.800752 9.23752 0.849241 9.33498 0.936906C9.43245 1.02457 9.49401 1.14521 9.50782 1.27556L9.66561 2.76465C9.88649 2.83978 10.1023 2.92912 10.3116 3.03211L11.4763 2.09104C11.5781 2.00902 11.7067 1.96748 11.8373 1.9744C11.9678 1.98132 12.0913 2.03621 12.1839 2.12854L13.6942 3.63886C13.7865 3.73146 13.8414 3.85489 13.8483 3.98547C13.8552 4.11605 13.8137 4.24459 13.7317 4.34643L12.7903 5.51145C12.8933 5.72071 12.9827 5.93637 13.0581 6.15711L14.5472 6.31525C14.6774 6.32914 14.7979 6.39069 14.8855 6.48807C14.9731 6.58545 15.0215 6.71178 15.0216 6.84275V8.97891C15.0218 9.10985 14.9737 9.23625 14.8864 9.33383C14.799 9.4314 14.6787 9.49324 14.5486 9.50747L13.0595 9.66561C12.9841 9.88635 12.8947 10.102 12.7917 10.3113L13.7331 11.4763C13.8151 11.5781 13.8567 11.7067 13.8497 11.8373C13.8428 11.9678 13.7879 12.0913 13.6956 12.1839L12.1853 13.6952C12.0927 13.7876 11.9692 13.8425 11.8387 13.8494C11.7081 13.8563 11.5795 13.8148 11.4777 13.7327L10.313 12.7917C10.1037 12.8947 9.88791 12.984 9.66703 13.0591L9.50924 14.5482C9.4954 14.6788 9.43363 14.7997 9.33587 14.8874C9.23811 14.9751 9.1113 15.0234 8.97997 15.023ZM7.32071 13.9616H8.50201L8.64671 12.5974C8.65806 12.4907 8.70154 12.3898 8.7714 12.3083C8.84126 12.2267 8.93422 12.1683 9.03799 12.1407C9.41179 12.041 9.77063 11.8919 10.105 11.6974C10.1981 11.6432 10.3055 11.6185 10.413 11.6268C10.5204 11.6351 10.6228 11.6759 10.7065 11.7438L11.7735 12.6059L12.6088 11.7706L11.7452 10.7068C11.6773 10.6231 11.6365 10.5207 11.6282 10.4133C11.62 10.3059 11.6446 10.1985 11.6988 10.1054C11.893 9.7712 12.0416 9.41259 12.1407 9.03906C12.1683 8.93523 12.2268 8.84224 12.3084 8.77237C12.39 8.7025 12.491 8.65905 12.5978 8.64777L13.9616 8.50272V7.32142L12.5978 7.17637C12.491 7.16508 12.39 7.12164 12.3084 7.05177C12.2268 6.9819 12.1683 6.88891 12.1407 6.78508C12.0416 6.41143 11.893 6.0527 11.6988 5.71842C11.6446 5.62531 11.62 5.51791 11.6282 5.41047C11.6365 5.30304 11.6773 5.20067 11.7452 5.11698L12.6073 4.04996L11.7721 3.21467L10.705 4.07685C10.6213 4.14472 10.519 4.1855 10.4115 4.19378C10.3041 4.20206 10.1967 4.17744 10.1036 4.12319C9.76936 3.9292 9.41077 3.7806 9.03729 3.68131C8.93351 3.65371 8.84056 3.59527 8.77069 3.51373C8.70083 3.43218 8.65735 3.33135 8.646 3.22457L8.50271 1.86214H7.32071L7.17601 3.22634C7.16464 3.33317 7.12111 3.43402 7.05118 3.51558C6.98125 3.59713 6.88821 3.65554 6.78437 3.68308C6.41116 3.78282 6.05292 3.9319 5.71912 4.12638C5.62602 4.18062 5.51861 4.20525 5.41118 4.19697C5.30374 4.18869 5.20138 4.1479 5.11768 4.08003L4.05173 3.21644L3.21679 4.05173L4.07932 5.11875C4.14714 5.20248 4.18786 5.30486 4.19608 5.4123C4.20429 5.51973 4.17961 5.62712 4.12531 5.72018C3.93148 6.0545 3.78289 6.41307 3.68343 6.7865C3.65583 6.89027 3.59739 6.98323 3.51585 7.05309C3.4343 7.12295 3.33348 7.16643 3.2267 7.17779L1.86249 7.32284V8.50378L3.2267 8.64883C3.33348 8.66018 3.4343 8.70366 3.51585 8.77352C3.59739 8.84339 3.65583 8.93635 3.68343 9.04012C3.78287 9.41316 3.93133 9.77137 4.12496 10.1054C4.17926 10.1984 4.20394 10.3058 4.19572 10.4133C4.18751 10.5207 4.14678 10.6231 4.07897 10.7068L3.21679 11.7721L4.05208 12.6073L5.11945 11.7452C5.20314 11.6773 5.30551 11.6365 5.41295 11.6282C5.52038 11.62 5.62779 11.6446 5.72089 11.6988C6.05498 11.8929 6.41346 12.0415 6.78685 12.1407C6.89069 12.1682 6.98372 12.2267 7.05365 12.3082C7.12358 12.3898 7.16711 12.4906 7.17849 12.5974L7.32071 13.9616Z" fill="white"/>
<path d="M7.91153 11.1421C7.27228 11.1421 6.6474 10.9524 6.11591 10.5972C5.58443 10.242 5.17021 9.7372 4.92562 9.14659C4.68104 8.55598 4.61708 7.9061 4.74184 7.27914C4.86659 6.65218 5.17446 6.07629 5.6265 5.6243C6.07855 5.1723 6.65447 4.8645 7.28144 4.73982C7.90842 4.61513 8.55829 4.67916 9.14887 4.92381C9.73946 5.16845 10.2442 5.58273 10.5994 6.11426C10.9545 6.64578 11.1441 7.27068 11.1441 7.90993C11.1431 8.76693 10.8023 9.58856 10.1962 10.1945C9.5902 10.8005 8.76853 11.1413 7.91153 11.1421ZM7.91153 5.7391C7.48219 5.73917 7.06252 5.86654 6.70557 6.10512C6.34863 6.3437 6.07044 6.68276 5.90619 7.07943C5.74194 7.47611 5.699 7.91258 5.7828 8.33365C5.86661 8.75473 6.07339 9.1415 6.377 9.44507C6.68061 9.74863 7.06741 9.95534 7.4885 10.0391C7.9096 10.1228 8.34606 10.0798 8.74271 9.91548C9.13935 9.75117 9.47837 9.47293 9.71689 9.11594C9.95541 8.75896 10.0827 8.33926 10.0827 7.90993C10.0821 7.33433 9.85309 6.7825 9.44605 6.37552C9.039 5.96854 8.48713 5.73966 7.91153 5.7391Z" fill="white"/>
</svg>
