<svg width="16" height="16" viewBox="0 0 16 16" fill="none" xmlns="http://www.w3.org/2000/svg">
<path d="M8.979 15.022H6.84319C6.7121 15.0221 6.58564 14.9736 6.48818 14.8859C6.39071 14.7982 6.32914 14.6776 6.31534 14.5472L6.15719 13.0582C5.93643 12.983 5.72076 12.8937 5.51153 12.7907L4.34793 13.7318C4.24609 13.8138 4.11755 13.8553 3.98697 13.8484C3.85639 13.8415 3.73296 13.7866 3.64036 13.6943L2.13004 12.184C2.03771 12.0913 1.98282 11.9679 1.9759 11.8373C1.96898 11.7068 2.01052 11.5782 2.09254 11.4764L3.03397 10.3114C2.9308 10.1022 2.84134 9.88649 2.76615 9.6657L1.27459 9.50649C1.14429 9.49269 1.0237 9.43117 0.936046 9.33379C0.84839 9.2364 0.799862 9.11002 0.799805 8.979V6.84283C0.799862 6.71181 0.84839 6.58543 0.936046 6.48805C1.0237 6.39066 1.14429 6.32914 1.27459 6.31534L2.76367 6.1572C2.83886 5.9364 2.92832 5.72073 3.03149 5.51154L2.09006 4.34652C2.00804 4.24468 1.9665 4.11614 1.97343 3.98555C1.98035 3.85497 2.03524 3.73154 2.12757 3.63894L3.63788 2.12863C3.73048 2.0363 3.85391 1.98141 3.98449 1.97449C4.11507 1.96757 4.24361 2.0091 4.34545 2.09113L5.51047 3.0322C5.7197 2.92921 5.93537 2.83987 6.15613 2.76474L6.31428 1.27565C6.32786 1.14492 6.38947 1.02388 6.48718 0.935968C6.58489 0.84806 6.71175 0.79954 6.84319 0.799806H8.979C9.11008 0.799776 9.23654 0.848265 9.33401 0.935929C9.43147 1.02359 9.49304 1.14423 9.50685 1.27459L9.66463 2.76368C9.88551 2.83881 10.1013 2.92815 10.3106 3.03114L11.4753 2.09007C11.5772 2.00804 11.7057 1.96651 11.8363 1.97343C11.9669 1.98035 12.0903 2.03524 12.1829 2.12757L13.6932 3.63788C13.7855 3.73048 13.8404 3.85391 13.8473 3.98449C13.8543 4.11507 13.8127 4.24361 13.7307 4.34545L12.7893 5.51047C12.8923 5.71973 12.9818 5.9354 13.0571 6.15613L14.5462 6.31428C14.6764 6.32816 14.7969 6.38971 14.8845 6.48709C14.9721 6.58447 15.0206 6.7108 15.0206 6.84177V8.97794C15.0209 9.10887 14.9727 9.23528 14.8854 9.33285C14.7981 9.43042 14.6778 9.49227 14.5476 9.50649L13.0585 9.66464C12.9832 9.88537 12.8937 10.101 12.7907 10.3103L13.7321 11.4753C13.8141 11.5772 13.8557 11.7057 13.8488 11.8363C13.8418 11.9669 13.7869 12.0903 13.6946 12.1829L12.1843 13.6943C12.0917 13.7866 11.9683 13.8415 11.8377 13.8484C11.7071 13.8553 11.5786 13.8138 11.4767 13.7318L10.3121 12.7907C10.1027 12.8937 9.88693 12.983 9.66605 13.0582L9.50826 14.5472C9.49443 14.6778 9.43266 14.7987 9.3349 14.8864C9.23713 14.9741 9.11033 15.0224 8.979 15.022ZM7.31974 13.9607H8.50103L8.64573 12.5965C8.65708 12.4897 8.70056 12.3889 8.77042 12.3073C8.84029 12.2258 8.93324 12.1673 9.03702 12.1397C9.41081 12.04 9.76965 11.891 10.104 11.6964C10.1971 11.6422 10.3045 11.6176 10.412 11.6258C10.5194 11.6341 10.6218 11.6749 10.7055 11.7428L11.7725 12.605L12.6078 11.7697L11.7442 10.7058C11.6763 10.6221 11.6355 10.5198 11.6273 10.4123C11.619 10.3049 11.6436 10.1975 11.6978 10.1044C11.892 9.77022 12.0406 9.41161 12.1397 9.03808C12.1673 8.93425 12.2258 8.84126 12.3075 8.77139C12.3891 8.70153 12.49 8.65808 12.5968 8.64679L13.9607 8.50174V7.32045L12.5968 7.17539C12.49 7.16411 12.3891 7.12066 12.3075 7.05079C12.2258 6.98092 12.1673 6.88793 12.1397 6.78411C12.0406 6.41045 11.892 6.05172 11.6978 5.71744C11.6436 5.62434 11.619 5.51693 11.6273 5.4095C11.6355 5.30206 11.6763 5.19969 11.7442 5.116L12.6064 4.04898L11.7711 3.21369L10.7041 4.07587C10.6204 4.14374 10.518 4.18453 10.4106 4.19281C10.3031 4.20109 10.1957 4.17646 10.1026 4.12222C9.76838 3.92823 9.40979 3.77963 9.03631 3.68034C8.93254 3.65273 8.83958 3.5943 8.76972 3.51275C8.69985 3.4312 8.65637 3.33038 8.64502 3.2236L8.50174 1.86117H7.31974L7.17504 3.22537C7.16366 3.33219 7.12013 3.43305 7.0502 3.5146C6.98027 3.59615 6.88724 3.65456 6.7834 3.68211C6.41018 3.78185 6.05194 3.93093 5.71814 4.1254C5.62504 4.17965 5.51764 4.20427 5.4102 4.19599C5.30277 4.18771 5.2004 4.14693 5.11671 4.07905L4.05075 3.21546L3.21581 4.05075L4.07834 5.11777C4.14616 5.2015 4.18688 5.30389 4.1951 5.41132C4.20332 5.51875 4.17863 5.62614 4.12434 5.71921C3.9305 6.05352 3.78191 6.41209 3.68246 6.78552C3.65485 6.88929 3.59642 6.98225 3.51487 7.05211C3.43332 7.12198 3.3325 7.16546 3.22572 7.17681L1.86152 7.32186V8.5028L3.22572 8.64785C3.3325 8.65921 3.43332 8.70269 3.51487 8.77255C3.59642 8.84241 3.65485 8.93537 3.68246 9.03914C3.78189 9.41218 3.93036 9.77039 4.12398 10.1044C4.17828 10.1975 4.20296 10.3048 4.19475 10.4123C4.18653 10.5197 4.14581 10.6221 4.07799 10.7058L3.21581 11.7711L4.0511 12.6064L5.11848 11.7442C5.20217 11.6763 5.30454 11.6355 5.41197 11.6273C5.5194 11.619 5.62681 11.6436 5.71991 11.6978C6.054 11.8919 6.41249 12.0405 6.78587 12.1397C6.88971 12.1673 6.98275 12.2257 7.05268 12.3072C7.1226 12.3888 7.16614 12.4896 7.17751 12.5965L7.31974 13.9607Z" fill="#001F22"/>
<path d="M7.91055 11.1421C7.2713 11.1421 6.64642 10.9524 6.11494 10.5972C5.58345 10.242 5.16923 9.7372 4.92465 9.14659C4.68006 8.55598 4.61611 7.9061 4.74086 7.27914C4.86562 6.65218 5.17348 6.07629 5.62553 5.6243C6.07757 5.1723 6.65349 4.8645 7.28047 4.73982C7.90744 4.61513 8.55731 4.67916 9.14789 4.92381C9.73848 5.16845 10.2433 5.58273 10.5984 6.11426C10.9535 6.64578 11.1431 7.27068 11.1431 7.90993C11.1422 8.76693 10.8013 9.58856 10.1953 10.1945C9.58923 10.8005 8.76756 11.1413 7.91055 11.1421ZM7.91055 5.7391C7.48122 5.73917 7.06154 5.86654 6.7046 6.10512C6.34765 6.3437 6.06947 6.68276 5.90522 7.07943C5.74096 7.47611 5.69803 7.91258 5.78183 8.33365C5.86563 8.75473 6.07241 9.1415 6.37602 9.44507C6.67963 9.74863 7.06644 9.95534 7.48753 10.0391C7.90862 10.1228 8.34508 10.0798 8.74173 9.91548C9.13838 9.75117 9.47739 9.47293 9.71591 9.11594C9.95443 8.75896 10.0817 8.33926 10.0817 7.90993C10.0811 7.33433 9.85211 6.7825 9.44507 6.37552C9.03802 5.96854 8.48615 5.73966 7.91055 5.7391Z" fill="#001F22"/>
</svg>
