<svg width="257" height="196" viewBox="0 0 257 196" fill="none" xmlns="http://www.w3.org/2000/svg">
<path d="M150.656 204.296C150.656 204.296 186.256 238.396 214.356 225.396C242.456 212.396 234.456 141.996 231.556 117.996C228.656 93.9956 208.456 76.8956 184.656 84.4956C160.856 92.0956 168.056 161.596 168.056 161.596C168.056 161.596 115.856 82.2956 68.1562 105.896C29.3563 125.096 2.15625 237.696 2.15625 237.696" fill="white"/>
<path d="M149.055 205.496C154.855 210.996 161.355 215.796 168.255 219.896C180.155 226.996 194.455 232.696 208.555 229.796C214.255 228.696 219.455 225.896 223.455 221.796C226.955 217.796 229.655 213.196 231.455 208.196C235.955 196.196 236.955 182.896 237.255 170.196C237.455 157.496 236.855 144.696 235.555 132.096C235.055 127.496 234.555 122.796 234.055 118.196C233.055 110.196 230.155 102.596 225.355 96.0955C220.955 90.0955 214.955 85.3955 207.955 82.7955C200.455 80.0955 192.255 79.8955 184.655 82.2955C175.155 85.0955 170.855 94.8955 168.555 103.696C165.655 114.596 165.055 126.196 164.955 137.396C164.955 144.996 165.155 152.496 165.855 160.096C165.855 160.496 165.955 160.896 165.955 161.296L170.255 161.196C167.955 157.696 165.455 154.396 162.855 151.096C157.055 143.596 150.855 136.596 144.155 129.896C136.055 121.696 126.855 114.496 116.955 108.696C107.355 103.196 96.4549 99.2955 85.2549 99.5955C75.2549 99.7955 65.5549 103.596 58.0549 110.196C50.4549 116.796 44.5549 125.096 39.4549 133.596C33.5549 143.596 28.3549 153.996 23.9549 164.596C19.5549 175.096 15.5549 185.796 11.9549 196.596C9.05493 205.296 6.35494 213.996 3.85494 222.796C2.55494 227.296 1.35494 231.796 0.254937 236.296L0.0549326 236.896C-0.545067 239.296 3.95493 241.496 4.55493 238.896C5.25493 235.796 6.15493 232.796 6.95493 229.796C9.05493 221.996 11.3549 214.296 13.7549 206.696C17.0549 196.396 20.6549 186.096 24.5549 175.996C28.6549 165.296 33.3549 154.896 38.7549 144.796C43.6549 135.696 49.1549 126.796 56.0549 119.096C58.8549 115.896 61.9549 113.096 65.3549 110.596C69.2549 107.896 73.7549 105.996 78.3549 104.896C88.5549 102.496 99.0549 104.596 108.355 108.796C113.255 110.996 117.955 113.696 122.455 116.796C124.755 118.396 127.055 120.096 129.355 121.896C130.455 122.796 131.555 123.696 132.555 124.596L134.055 125.896L134.755 126.496L135.355 126.996C142.755 133.696 149.655 140.996 155.955 148.796C158.255 151.596 160.455 154.396 162.555 157.296L163.155 158.096L163.455 158.496C163.155 158.096 163.355 158.296 163.455 158.496L164.455 159.896C164.855 160.496 165.355 161.096 165.755 161.796C165.855 161.996 166.055 162.196 166.155 162.396C166.755 163.296 167.755 163.896 168.755 163.896C169.655 163.896 170.455 163.196 170.455 162.296C169.955 157.096 169.655 151.896 169.555 146.696C169.155 136.096 169.655 125.496 171.055 115.096C171.755 109.896 173.055 104.796 174.755 99.8955C175.455 97.8955 176.355 95.9955 177.555 94.0955C178.155 93.1955 178.755 92.2955 179.355 91.4955C179.655 91.0955 179.955 90.7955 180.255 90.3955C180.555 90.0955 180.855 89.7955 181.155 89.4955C182.455 88.2955 183.955 87.3955 185.655 86.7955C189.155 85.5955 192.855 84.9955 196.555 84.9955C203.255 84.9955 209.855 87.2955 215.155 91.3955C220.555 95.7955 224.655 101.496 226.955 108.096C228.855 113.496 229.455 118.996 230.055 124.596C231.355 136.096 232.255 147.696 232.455 159.396C232.655 172.096 232.255 184.996 229.355 197.396C228.255 202.696 226.355 207.896 223.855 212.696C221.755 216.796 218.555 220.296 214.655 222.696C213.555 223.296 212.455 223.896 211.255 224.296C209.655 224.896 207.955 225.396 206.255 225.796C203.055 226.396 199.755 226.596 196.555 226.296C190.055 225.596 183.755 223.696 177.955 220.796C168.955 216.496 160.555 210.896 153.155 204.196C152.755 203.796 153.555 204.596 153.255 204.296L152.955 204.096L152.555 203.696L152.255 203.396C151.455 202.596 150.055 201.896 148.955 202.696C148.155 203.396 148.055 204.696 148.755 205.496C148.855 205.396 148.955 205.496 149.055 205.496Z" fill="#000005"/>
<path d="M95.8548 26.3955C95.8548 26.3955 107.555 38.3955 119.455 37.2955C131.355 36.1955 154.155 30.6955 157.455 42.2955C160.755 53.8955 144.955 59.0955 134.755 57.7955C134.755 57.7955 139.255 88.8955 121.355 98.4955C103.455 108.096 94.5548 103.395 93.9548 116.195C93.9548 116.195 68.8548 125.296 65.0548 101.396C64.4548 97.6955 56.2548 65.9955 83.7548 49.5955C83.7548 49.6955 99.4548 41.3955 95.8548 26.3955Z" fill="white"/>
<path d="M94.2565 26.4951C98.3565 30.5951 103.057 33.9951 108.357 36.3951C112.257 38.2951 116.557 39.1951 120.857 38.9951C124.057 38.7951 127.257 38.1951 130.457 37.7951C134.057 37.2951 137.757 36.8951 141.457 36.7951C144.657 36.5951 147.857 36.7951 150.857 37.5951C151.357 37.6951 151.957 37.8951 152.457 38.0951C152.557 38.1951 153.457 38.5951 152.957 38.2951C153.057 38.3951 153.157 38.3951 153.357 38.4951C153.757 38.7951 153.057 38.1951 153.557 38.5951C153.657 38.6951 154.257 39.1951 153.957 38.8951C154.157 39.0951 154.357 39.2951 154.557 39.4951C154.457 39.2951 154.857 39.8951 154.857 39.9951C154.957 40.2951 155.157 40.4951 155.257 40.7951C156.357 43.6951 155.957 46.8951 154.157 49.3951C152.057 52.2951 148.557 53.9951 145.157 54.9951C141.557 56.0951 137.657 56.3951 133.857 55.9951C133.457 55.9951 132.657 55.9951 132.757 56.5951C133.857 64.5951 133.457 72.6951 131.357 80.4951C129.757 86.1951 126.857 91.7951 121.957 95.2951C118.457 97.5951 114.757 99.3951 110.757 100.695C107.657 101.895 104.357 102.795 101.257 103.795C98.8565 104.595 96.2565 105.395 94.4565 107.295C92.6565 109.195 92.0565 112.295 91.8565 114.995L92.1565 114.495C91.7565 114.595 91.2565 114.795 90.8565 114.895L90.5565 114.995C90.6565 114.995 90.7565 114.895 90.5565 114.995L89.6565 115.195C89.0565 115.295 88.3565 115.495 87.6565 115.595C84.3565 116.295 80.9565 116.295 77.6565 115.595C77.3565 115.495 77.9565 115.695 77.5565 115.595L77.2565 115.495L76.5565 115.295C76.3565 115.195 76.1565 115.195 75.8565 115.095C75.5565 114.995 75.0565 114.795 75.4565 114.995C75.0565 114.795 74.6565 114.595 74.2565 114.395C73.6565 114.095 74.3565 114.495 74.0565 114.295L73.3565 113.795L72.9565 113.595C72.9565 113.595 73.2565 113.895 73.0565 113.695L72.4565 113.195C72.1565 112.995 71.8565 112.695 71.5565 112.395C70.8565 111.595 70.1565 110.795 69.6565 109.795C67.8565 106.695 67.3565 103.195 66.6565 99.6951C66.4565 98.4951 66.2565 97.2951 66.0565 95.8951C65.8565 94.0951 65.6565 92.2951 65.5565 90.3951C65.3565 85.7951 65.6565 81.2951 66.6565 76.7951C69.0565 65.8951 75.9565 56.4951 85.5565 50.8951C92.4565 46.7951 98.4565 39.7951 98.4565 31.3951C98.4565 29.7951 98.2565 28.2951 97.8565 26.7951C97.5565 25.3951 93.0565 23.3951 93.5565 25.4951C95.7565 34.7951 89.7565 43.1951 82.0565 47.6951C72.3565 53.2951 65.2565 62.5951 62.5565 73.4951C60.5565 81.4951 60.7565 89.8951 62.2565 97.9951C62.3565 98.4951 62.4565 98.9951 62.5565 99.4951C62.5565 99.6951 62.6565 99.8951 62.6565 99.9951C62.6565 100.095 62.7565 100.595 62.7565 100.295C62.7565 99.9951 62.8565 100.795 62.8565 100.895C62.9565 101.295 62.9565 101.695 63.0565 102.095C63.2565 102.895 63.4565 103.595 63.6565 104.395C64.0565 105.795 64.6565 107.195 65.3565 108.495C67.7565 112.995 71.7565 116.395 76.5565 118.095C80.3565 119.295 84.2565 119.695 88.2565 119.195C90.6565 118.995 93.0565 118.495 95.3565 117.695C95.4565 117.695 95.5565 117.595 95.7565 117.595C95.9565 117.495 96.0565 117.295 96.0565 117.095C96.1565 114.695 96.5565 112.195 98.1565 110.295C99.5565 108.695 101.657 107.895 103.657 107.195C110.657 104.795 117.957 103.095 124.357 99.0951C134.657 92.6951 137.257 79.2951 137.357 68.0951C137.457 64.8951 137.257 61.7951 136.857 58.5951L135.757 59.1951C142.557 59.9951 150.657 58.6951 155.957 54.1951C158.457 52.1951 159.957 49.1951 160.057 45.8951C159.957 42.5951 158.457 39.3951 155.957 37.2951C150.457 32.6951 142.457 32.7951 135.657 33.2951C131.957 33.5951 128.257 34.0951 124.457 34.5951C120.957 35.0951 117.357 35.7951 113.857 35.1951C109.557 34.4951 105.557 32.2951 102.057 29.7951C101.657 29.4951 100.857 28.8951 100.257 28.3951C99.6565 27.8951 99.0565 27.3951 98.4565 26.8951L97.3565 25.8951C97.4565 25.9951 97.9565 26.4951 97.3565 25.8951C96.6565 25.1951 95.3565 24.1951 94.2565 24.3951C93.1565 24.5951 93.6565 25.9951 94.2565 26.4951Z" fill="#000005"/>
<path d="M56.2548 91.1953C56.2548 91.1953 41.7548 99.7953 36.7548 92.0954C31.7548 84.3954 42.4548 83.4953 42.4548 83.4953C42.4548 83.4953 25.8548 69.4953 40.9548 61.6953C40.9548 61.6953 23.8548 52.2953 30.8548 36.9953C37.8548 21.6953 61.0548 23.5953 61.0548 23.5953C61.0548 23.5953 55.0548 4.79535 72.1548 2.49535C89.2548 0.195345 88.4548 12.7953 88.4548 12.7953C88.4548 12.7953 99.3548 11.1953 101.455 17.6953C103.555 24.1953 96.4548 28.9953 96.4548 28.9953C96.4548 28.9953 98.8548 48.4953 83.7548 49.8953L76.6548 77.2953C76.6548 77.2953 83.9548 84.3953 81.1548 94.7953C78.3548 105.195 59.0548 103.495 56.2548 91.1953Z" fill="#000005"/>
<path d="M54.7532 89.7955C54.4532 89.9955 54.0532 90.1955 53.7532 90.3955L53.2532 90.6955L52.9532 90.7955H53.0532C52.5532 90.9955 51.9532 91.2955 51.4532 91.4955C50.2532 91.9955 49.0532 92.4955 47.7532 92.7955C46.5532 93.0955 45.3532 93.2955 44.1532 93.3955C43.5532 93.3955 42.9532 93.3955 42.3532 93.2955C41.9532 93.1955 42.6532 93.3955 42.2532 93.2955L41.9532 93.1955C41.6532 93.0955 41.4532 92.9955 41.1532 92.8955C40.0532 92.2955 39.1532 91.3955 38.6532 90.2955C38.3532 89.7955 38.1532 89.1955 38.0532 88.5955C37.9532 88.1955 37.9532 87.7955 38.1532 87.3955C38.1532 87.4955 38.3532 86.9955 38.4532 86.8955C38.2532 87.1955 38.6532 86.5955 38.4532 86.8955C38.5532 86.7955 38.5532 86.6955 38.6532 86.6955C38.8532 86.5955 39.1532 86.2955 38.7532 86.5955C38.9532 86.3955 39.2532 86.2955 39.5532 86.0955C39.6532 85.9955 39.9532 85.8955 39.4532 86.0955C39.5532 85.9955 39.7532 85.9955 39.8532 85.8955C39.9532 85.7955 40.3532 85.6955 40.5532 85.5955C40.7532 85.4955 41.0532 85.4955 41.2532 85.3955C41.0532 85.4955 40.8532 85.4955 41.3532 85.3955C41.8532 85.2955 42.3532 85.1955 42.8532 85.1955C44.1532 85.0955 46.0532 83.2955 44.5532 82.0955C42.1532 80.0955 40.1532 77.6955 38.6532 74.8955C37.5532 73.0955 37.0532 70.8955 37.2532 68.6955C37.7532 65.9955 40.0532 64.1955 42.5532 62.8955C43.3532 62.4955 43.7532 61.4955 43.3532 60.6955C43.1532 60.3955 42.9532 60.0955 42.6532 59.8955C42.0532 59.4955 41.3532 59.0955 40.7532 58.6955L40.3532 58.3955C40.8532 58.6955 40.2532 58.2955 40.1532 58.1955C39.8532 57.8955 39.4532 57.6955 39.1532 57.3955C38.3532 56.7955 37.6532 56.0955 36.9532 55.3955C33.7532 52.0955 31.3532 47.5955 31.7532 42.8955C32.2532 37.3955 35.3532 32.4955 40.0532 29.5955C42.1532 28.2955 44.3532 27.3955 46.6532 26.6955C47.6532 26.3955 48.7532 26.0955 49.7532 25.8955C50.8532 25.6955 51.8532 25.4955 52.9532 25.3955C54.0532 25.2955 55.1532 25.1955 56.2532 25.0955H57.1532C57.5532 25.0955 57.9532 25.0955 58.4532 25.0955C59.2532 25.0955 60.0532 25.0955 60.7532 25.1955C61.7532 25.2955 64.0532 24.3955 63.6532 22.9955C63.1532 21.2955 62.8532 19.5955 62.7532 17.8955C62.3532 14.6955 62.9532 11.4955 64.4532 8.59549C65.3532 7.19549 66.5532 6.09549 68.0532 5.39549C70.3532 4.29549 72.9532 3.79549 75.5532 3.89549C76.7532 3.89549 77.9532 3.9955 79.1532 4.1955C80.0532 4.39549 80.9532 4.69549 81.7532 5.09549C82.4532 5.39549 83.0532 5.79549 83.5532 6.29549C83.8532 6.59549 84.0532 6.89549 84.3532 7.09549C84.6532 7.29549 84.3532 7.0955 84.4532 7.1955L84.7532 7.6955C85.1532 8.2955 85.4532 8.9955 85.6532 9.6955C85.4532 9.1955 85.7532 9.9955 85.7532 10.1955C85.8532 10.4955 85.8532 10.7955 85.9532 10.9955C86.0532 11.3955 86.0532 11.7955 86.0532 12.1955C86.0532 12.5955 86.0532 12.7955 86.0532 12.1955C85.9532 13.6955 87.3532 14.3955 88.7532 14.1955C89.1532 14.0955 89.5532 14.0955 90.0532 14.0955C90.1532 14.0955 90.9532 14.0955 90.1532 14.0955H90.9532C91.4532 14.0955 91.9532 14.0955 92.4532 14.0955C94.5532 14.1955 96.8532 14.5955 98.2532 16.2955C100.053 18.2955 99.5532 21.4955 98.1532 23.6955C97.5532 24.5955 96.8532 25.4955 96.0532 26.1955L95.5532 26.6955C95.0532 27.0955 95.7532 26.5955 95.4532 26.7955C95.1532 26.9955 95.2532 26.9955 95.0532 27.0955C94.4532 27.4955 94.0532 28.1955 94.0532 28.8955C94.1532 29.4955 94.1532 30.0955 94.1532 30.6955C94.1532 31.2955 94.1532 32.2955 94.1532 32.4955C94.1532 32.5955 94.1532 32.7955 94.1532 32.8955V33.3955C94.1532 33.8955 94.0532 34.2955 94.0532 34.7955C93.8532 36.6955 93.4532 38.4955 92.7532 40.2955C92.1532 41.9955 91.1532 43.4955 89.8532 44.8955C89.1532 45.5955 88.3532 46.0955 87.4532 46.5955C86.2532 47.1955 84.9532 47.4955 83.5532 47.5955C82.5532 47.6955 81.6532 48.3955 81.3532 49.2955L74.6532 75.2955C74.5532 75.7955 74.3532 76.1955 74.2532 76.6955C74.1532 77.3955 74.4532 78.0955 74.9532 78.4955C75.1532 78.7955 75.4532 78.9955 75.6532 79.2955C75.8532 79.5955 75.4532 79.0955 75.6532 79.3955C75.7532 79.4955 75.7532 79.5955 75.8532 79.6955C76.0532 79.9955 76.2532 80.2955 76.4532 80.6955C77.2532 81.9955 77.9532 83.3955 78.4532 84.8955C79.5532 88.2955 79.6532 92.9955 77.9532 95.9955C76.7532 97.7955 74.8532 98.9955 72.7532 99.2955C72.3532 99.3955 71.9532 99.3955 71.6532 99.4955H71.1532C70.3532 99.5955 71.6532 99.4955 70.8532 99.4955C70.0532 99.4955 69.2532 99.3955 68.4532 99.2955C68.1532 99.2955 67.9532 99.1955 67.6532 99.0955C67.2532 98.9955 66.7532 98.8955 66.3532 98.6955C65.6532 98.4955 64.9532 98.1955 64.3532 97.7955C61.5532 96.3955 59.4532 93.7955 58.7532 90.6955C58.1532 88.1955 53.2532 88.9955 53.7532 91.3955C55.6532 99.6955 64.2532 103.896 72.2532 102.995C76.0532 102.695 79.5532 100.895 81.9532 97.8955C84.7532 94.0955 84.7532 88.3955 83.4532 84.0955C82.5532 80.8955 80.8532 77.9955 78.6532 75.5955L79.0532 76.9955L85.2532 52.9955L86.1532 49.5955L83.9532 51.2955C89.3532 50.8955 94.1532 47.6955 96.6532 42.7955C98.3532 38.9955 99.1532 34.8955 98.9532 30.7955C98.9532 29.8955 98.9532 28.9955 98.8532 28.1955L97.8532 29.9955C101.453 27.5955 104.553 23.3955 104.253 18.8955C103.853 12.9955 98.0532 10.6955 92.8532 10.3955C91.2532 10.2955 89.6532 10.3955 88.0532 10.5955L90.7532 12.5955C90.8532 10.5955 90.4532 8.59549 89.5532 6.79549C87.5532 2.69549 83.1532 0.695495 78.7532 0.195495C72.9532 -0.504505 66.0532 0.595486 61.7532 4.79549C58.6532 7.79549 57.5532 12.0955 57.4532 16.2955C57.3532 18.7955 57.7532 21.2955 58.4532 23.6955L61.3532 21.3955C53.3532 20.6955 45.3532 22.1955 38.1532 25.8955C32.5532 28.8955 28.4532 34.0955 27.0532 40.2955C25.7532 46.0955 27.6532 51.7955 31.3532 56.2955C33.5532 58.9955 36.2532 61.2955 39.3532 63.0955L39.4532 60.0955C34.8532 62.4955 31.1532 66.7955 32.2532 72.2955C33.0532 76.2955 35.5532 79.6955 38.2532 82.5955C38.9532 83.2955 39.6532 83.9955 40.3532 84.5955L42.0532 81.4955C37.7532 81.8955 31.6532 84.5955 32.9532 89.8955C33.9532 93.6955 37.0532 96.4955 40.9532 96.9955C44.4532 97.4955 48.0532 96.6955 51.2532 95.4955C53.4532 94.6955 55.5532 93.6955 57.5532 92.5955C58.4532 92.1955 58.7532 91.1955 58.3532 90.2955C58.2532 90.1955 58.1532 89.9955 58.0532 89.8955C57.2532 89.1955 55.8532 89.0955 54.7532 89.7955Z" fill="black"/>
<path d="M87.1554 52.5951C87.1554 52.5951 81.2554 40.4951 72.8554 45.5951C64.4554 50.6951 69.1554 80.4951 85.2554 74.9951" fill="white"/>
<path d="M89.4558 51.495C87.9558 48.495 85.4558 45.395 82.4558 43.895C79.6558 42.495 76.4558 43.095 73.7558 44.395C71.6558 45.295 69.7558 46.795 68.5558 48.695C66.4558 52.195 66.3558 56.695 66.7558 60.695C67.2558 64.995 68.6558 69.595 71.4558 72.895C72.8558 74.595 74.6558 75.895 76.7558 76.595C79.5558 77.295 82.3558 76.995 85.0558 75.995C85.6558 75.795 87.5558 74.995 87.6558 74.195C87.7558 73.395 85.9558 73.995 85.6558 74.095C85.8558 73.995 85.3558 74.195 85.2558 74.195C85.0558 74.295 84.9558 74.295 84.7558 74.295C84.3558 74.395 83.8558 74.395 83.4558 74.395C82.5558 74.395 81.7558 74.295 80.8558 74.095C79.1558 73.595 77.6558 72.595 76.4558 71.295C73.8558 68.395 72.1558 64.795 71.5558 60.895C70.7558 57.095 70.7558 53.195 71.8558 49.495C72.0558 48.695 72.3558 47.995 72.7558 47.295C72.9558 46.995 73.0558 46.795 73.2558 46.495C73.4558 46.295 73.5558 46.095 73.7558 45.895C73.8558 45.795 73.9558 45.595 73.9558 45.695C73.8558 45.795 73.9558 45.795 73.9558 45.695C73.3558 45.895 73.7558 45.795 73.9558 45.695C74.1558 45.595 74.4558 45.495 74.6558 45.495C75.6558 45.395 76.6558 45.595 77.5558 45.895C80.7558 47.195 83.3558 50.395 84.8558 53.495C85.3558 54.695 89.8558 52.495 89.4558 51.495Z" fill="#000005"/>
<path d="M115.953 66.8953C117.953 71.5953 122.153 75.0953 127.153 76.1953C129.853 76.6953 132.653 76.4953 135.353 75.6953C135.953 75.4953 135.953 75.1953 135.353 74.9953C134.453 74.7953 133.553 74.7953 132.753 74.9953C132.353 75.0953 131.953 75.1953 131.553 75.2953L131.053 75.3953H130.553C129.953 75.3953 129.453 75.3953 128.853 75.1953C127.453 74.7953 126.153 74.1953 125.053 73.2953C123.153 71.8953 121.553 70.0953 120.453 67.9953C120.253 67.6953 120.053 67.3953 119.953 67.0953C119.953 66.9953 119.753 66.6953 119.853 66.8953V66.7953C119.653 66.1953 118.453 66.2953 117.953 66.2953C117.753 66.3953 115.853 66.4953 115.953 66.8953Z" fill="#000005"/>
<path d="M107.855 47.3955C109.236 47.3955 110.355 46.2762 110.355 44.8955C110.355 43.5148 109.236 42.3955 107.855 42.3955C106.475 42.3955 105.355 43.5148 105.355 44.8955C105.355 46.2762 106.475 47.3955 107.855 47.3955Z" fill="#000005"/>
<path d="M220.956 99.2959L219.456 84.2959C232.956 76.8959 232.656 64.6959 232.656 64.6959C240.456 60.8959 246.856 68.7959 250.856 67.6959C254.856 66.5959 255.156 63.4959 249.356 56.9959C243.556 50.4959 233.856 50.2959 233.856 50.2959C244.256 50.6959 257.656 45.7959 253.956 37.5959C250.256 29.3959 241.356 31.5959 241.356 31.5959C242.056 16.9959 204.556 24.4959 187.356 47.1959C170.156 69.8959 181.456 97.6959 181.456 97.6959C181.456 97.6959 194.856 106.796 220.956 99.2959Z" fill="white"/>
<path d="M223.057 100.396L221.557 85.3957L221.257 85.7957C226.557 82.9957 230.757 78.4957 233.157 72.9957C234.157 70.6957 234.657 68.1957 234.757 65.6957L234.457 66.1957C236.457 65.1957 238.757 64.9957 240.857 65.4957C242.557 65.9957 244.157 66.5957 245.657 67.3957C248.557 68.7957 252.057 70.3957 254.857 67.9957C257.657 65.5957 254.457 61.1957 252.857 59.0957C249.757 54.9957 245.557 51.7957 240.757 50.0957C238.057 49.0957 235.257 48.4957 232.457 48.3957C231.357 48.3957 231.957 49.5957 232.357 50.0957C233.157 50.9957 234.157 51.5957 235.357 51.7957C239.357 51.8957 243.357 51.3957 247.257 50.1957C250.257 49.1957 253.657 47.6957 255.557 44.9957C257.457 42.2957 256.657 38.8957 254.857 36.1957C252.657 32.9957 249.357 30.7957 245.657 29.9957C243.657 29.5957 241.657 29.5957 239.657 29.9957L243.557 32.7957C243.757 28.4957 240.357 25.3957 236.657 23.7957C232.457 21.9957 227.557 22.2957 223.157 23.0957C210.757 25.1957 198.757 31.7957 189.857 40.6957C184.257 46.2957 180.157 53.0957 177.857 60.5957C175.857 67.3957 175.257 74.4957 175.957 81.5957C176.357 86.1957 177.357 90.6957 178.757 95.0957C178.957 95.8957 179.257 96.5957 179.657 97.3957C180.457 98.3957 181.457 99.1957 182.657 99.6957C192.657 104.896 204.957 104.896 215.857 102.796C218.257 102.296 220.557 101.796 222.857 101.096C223.857 100.796 222.457 99.2957 222.157 99.0957C221.457 98.4957 220.257 97.5957 219.257 97.8957C211.457 100.296 203.257 101.196 195.157 100.596C191.057 100.296 186.957 99.2957 183.157 97.5957C183.257 97.5957 183.557 97.7957 183.157 97.5957L182.857 97.3957L182.257 97.0957C181.457 96.6957 182.657 97.3957 182.257 97.0957L183.757 98.6957C182.057 94.3957 181.057 89.7957 180.557 85.1957C179.457 75.1957 180.657 64.8957 185.257 55.8957C189.857 46.8957 197.257 39.7957 205.857 34.5957C212.857 30.3957 220.757 27.0957 228.957 26.1957C230.657 25.9957 232.457 25.9957 234.157 26.0957C234.857 26.0957 235.557 26.2957 236.257 26.3957C236.657 26.4957 236.957 26.5957 237.357 26.6957C236.857 26.5957 237.757 26.8957 237.957 26.8957L238.257 26.9957C237.657 26.6957 238.257 26.9957 238.357 27.0957C238.657 27.3957 238.257 26.9957 238.157 26.9957C238.257 27.0957 238.457 27.1957 238.657 27.2957C238.057 26.8957 238.357 27.0957 238.557 27.1957C238.257 26.8957 238.957 27.5957 238.557 27.1957L238.857 27.4957C238.657 27.2957 238.757 27.2957 238.857 27.4957C238.957 27.6957 238.957 27.6957 239.057 27.8957C238.857 27.4957 239.057 27.8957 239.057 27.9957C239.157 28.2957 239.257 28.4957 239.357 28.7957C239.457 29.3957 239.557 29.9957 239.457 30.5957C239.357 32.0957 242.157 33.6957 243.357 33.3957L243.657 33.2957C243.457 33.2957 243.957 33.2957 243.657 33.2957L244.157 33.1957C245.057 33.0957 245.857 33.0957 246.757 33.1957C247.757 33.2957 248.657 33.4957 249.557 33.8957C249.857 33.9957 250.057 34.1957 250.357 34.3957C250.857 34.7957 251.257 35.2957 251.557 35.8957C255.157 41.5957 248.757 45.5957 243.957 47.0957C240.257 48.2957 236.457 48.7957 232.657 48.6957L235.557 51.9957C237.357 52.0957 239.157 52.3957 240.857 52.8957C244.357 53.7957 247.357 55.8957 249.557 58.7957C250.857 60.4957 253.357 63.8957 250.657 65.5957C248.157 67.0957 245.957 65.2957 243.657 64.1957C239.657 62.2957 235.257 61.1957 230.957 63.1957C230.757 63.2957 230.657 63.3957 230.657 63.5957C230.657 65.8957 230.157 68.1957 229.257 70.3957C226.957 75.6957 222.957 80.0957 217.857 82.7957C217.657 82.8957 217.557 82.9957 217.557 83.2957L219.057 98.2957C219.157 99.3957 220.257 100.196 221.157 100.696C221.257 100.596 223.157 101.396 223.057 100.396Z" fill="#000005"/>
<path d="M192.655 55.2957L192.755 55.1957C192.455 55.3957 193.155 54.8957 192.755 55.1957C193.055 54.9957 193.655 54.6957 194.055 54.3957C195.455 53.5957 196.855 52.7957 198.255 52.1957C202.055 50.3957 206.155 49.0957 210.455 49.3957C213.855 49.6957 217.855 51.1957 219.555 54.3957C220.255 55.5957 220.455 56.9957 220.055 58.2957C219.755 58.8957 219.455 59.3957 219.055 59.8957C218.955 60.0957 218.755 60.0957 219.155 59.8957C218.855 59.9957 218.555 59.9957 218.355 59.9957C216.155 60.0957 214.055 60.2957 211.855 60.4957C209.155 60.9957 206.655 62.1957 204.655 64.0957C203.655 65.0957 206.155 64.9957 206.455 64.8957C206.955 64.7957 205.955 64.8957 206.255 64.8957C206.555 64.8957 206.855 64.8957 207.155 64.7957C206.555 64.7957 207.255 64.7957 207.355 64.7957H207.955C208.355 64.7957 208.655 64.8957 209.055 64.9957C211.655 65.7957 212.955 68.1957 213.255 70.6957C213.355 71.6957 218.255 70.5957 218.055 69.1957C217.855 66.0957 215.755 63.5957 212.755 62.7957C210.955 62.3957 209.055 62.2957 207.255 62.6957L209.055 63.4957C210.355 62.1957 211.955 62.1957 213.755 62.1957C216.055 62.1957 218.255 61.8957 220.455 61.0957C223.955 59.6957 226.155 56.1957 224.255 52.5957C222.355 48.9957 217.855 47.2957 213.955 46.7957C208.555 46.1957 202.955 47.7957 198.055 49.7957C194.855 51.0957 191.755 52.7957 188.855 54.6957C188.055 55.1957 188.355 55.7957 189.255 55.8957C190.455 55.8957 191.655 55.4957 192.655 54.7957V55.2957Z" fill="#000005"/>
<path d="M219.553 43.1953C222.053 41.5953 224.553 40.0953 227.153 38.7953C232.053 36.0953 237.353 34.1953 242.853 33.1953C243.953 32.9953 243.553 31.6953 243.053 31.0953C242.253 30.1953 241.053 29.6953 239.853 29.6953C234.153 30.5953 228.753 32.7953 223.653 35.3953C220.953 36.7953 218.253 38.2953 215.753 39.8953C214.153 41.1953 218.053 44.1953 219.553 43.1953Z" fill="#000005"/>
</svg>
