<svg width="18" height="24" viewBox="0 0 18 24" fill="none" xmlns="http://www.w3.org/2000/svg">
<path fill-rule="evenodd" clip-rule="evenodd" d="M15.5 23.5H2.5C1.3955 23.5 0.5 22.6045 0.5 21.5V2.5C0.5 1.3955 1.3955 0.5 2.5 0.5H11.9865C11.9875 0.5 11.989 0.5 11.99 0.5H12C12.16 0.5 12.2965 0.5805 12.388 0.6975L17.3025 5.612C17.42 5.7035 17.5 5.84 17.5 6V6.0105C17.5 6.0115 17.5 6.012 17.5 6.013V21.5C17.5 22.6045 16.6045 23.5 15.5 23.5ZM12.5 2.1905V5.5H15.8095L12.5 2.1905ZM16.5 6.5H12C11.7235 6.5 11.5 6.276 11.5 6V1.5H2.5C1.948 1.5 1.5 1.948 1.5 2.5V21.5C1.5 22.052 1.948 22.5 2.5 22.5H15.5C16.052 22.5 16.5 22.052 16.5 21.5V6.5ZM13.5 19.5H4.5C4.2235 19.5 4 19.2765 4 19C4 18.724 4.2235 18.5 4.5 18.5H13.5C13.7765 18.5 14 18.724 14 19C14 19.2765 13.7765 19.5 13.5 19.5ZM13.5 15.5H4.5C4.2235 15.5 4 15.2765 4 15C4 14.724 4.2235 14.5 4.5 14.5H13.5C13.7765 14.5 14 14.724 14 15C14 15.2765 13.7765 15.5 13.5 15.5ZM13.5 11.5H4.5C4.2235 11.5 4 11.2765 4 11C4 10.724 4.2235 10.5 4.5 10.5H13.5C13.7765 10.5 14 10.724 14 11C14 11.2765 13.7765 11.5 13.5 11.5Z" fill="#0BB9CD"/>
</svg>
