<svg width="28" height="28" viewBox="0 0 28 28" fill="none" xmlns="http://www.w3.org/2000/svg">
<path fill-rule="evenodd" clip-rule="evenodd" d="M12.6131 19.686C12.192 19.6867 11.786 19.5293 11.4755 19.2449C11.1649 18.9605 10.9726 18.5698 10.9364 18.1503C10.7768 16.3339 10.7365 14.509 10.8157 12.6873L10.5305 12.667L8.8504 12.5452C8.60504 12.5273 8.36854 12.446 8.16405 12.3092C7.95957 12.1724 7.7941 11.9849 7.68385 11.765C7.5736 11.545 7.52235 11.3002 7.53512 11.0546C7.54788 10.8089 7.62423 10.5707 7.75667 10.3634C8.9936 8.42851 11.2589 6.26361 13.1238 4.92407C13.39 4.73339 13.7092 4.63086 14.0366 4.63086C14.364 4.63086 14.6832 4.73339 14.9494 4.92407C16.8132 6.26361 19.0785 8.42851 20.3154 10.3634C20.4478 10.5707 20.5242 10.8089 20.537 11.0546C20.5497 11.3002 20.4985 11.545 20.3882 11.765C20.278 11.9849 20.1125 12.1724 19.908 12.3092C19.7035 12.446 19.467 12.5273 19.2217 12.5452L17.5416 12.667L17.2563 12.6873C17.3353 14.5094 17.2947 16.3338 17.1357 18.1503C17.0995 18.5698 16.9071 18.9605 16.5966 19.2449C16.2861 19.5293 15.8801 19.6867 15.459 19.686H12.6131ZM12.5499 11.9454C12.4214 13.9607 12.4451 15.9829 12.621 17.9947H15.4511C15.627 15.9831 15.6507 13.9614 15.5233 11.9454C15.5163 11.8336 15.5315 11.7216 15.5681 11.6158C15.6048 11.51 15.662 11.4126 15.7366 11.3291C15.8112 11.2456 15.9016 11.1777 16.0026 11.1295C16.1036 11.0812 16.2132 11.0534 16.325 11.0478C16.6903 11.0298 17.0549 11.0072 17.4187 10.9802L18.6376 10.8922C17.5543 9.29811 16.1994 7.90662 14.6348 6.78115L14.036 6.35156L13.4373 6.78115C11.8727 7.90662 10.5178 9.29811 9.43448 10.8922L10.6534 10.9813C11.0179 11.0076 11.3825 11.0298 11.7471 11.0478C11.8589 11.0534 11.9685 11.0812 12.0695 11.1295C12.1705 11.1777 12.2609 11.2456 12.3355 11.3291C12.4101 11.4126 12.4673 11.51 12.5039 11.6158C12.5405 11.7216 12.5558 11.8336 12.5488 11.9454" fill="#001F22"/>
<path d="M6.98821 20.1074C6.98821 19.8831 6.89911 19.668 6.74052 19.5094C6.58193 19.3508 6.36683 19.2617 6.14254 19.2617C5.91826 19.2617 5.70316 19.3508 5.54457 19.5094C5.38597 19.668 5.29688 19.8831 5.29688 20.1074V22.3625C5.29688 23.4517 6.18088 24.3357 7.2701 24.3357H20.8008C21.3241 24.3357 21.826 24.1278 22.1961 23.7578C22.5661 23.3877 22.774 22.8858 22.774 22.3625V20.1074C22.774 19.8831 22.6849 19.668 22.5263 19.5094C22.3677 19.3508 22.1526 19.2617 21.9283 19.2617C21.704 19.2617 21.4889 19.3508 21.3304 19.5094C21.1718 19.668 21.0827 19.8831 21.0827 20.1074V22.3625C21.0827 22.4373 21.053 22.509 21.0001 22.5618C20.9472 22.6147 20.8755 22.6444 20.8008 22.6444H7.2701C7.19534 22.6444 7.12364 22.6147 7.07077 22.5618C7.01791 22.509 6.98821 22.4373 6.98821 22.3625V20.1074Z" fill="#001F22"/>
</svg>
