<svg width="28" height="28" viewBox="0 0 28 28" fill="none" xmlns="http://www.w3.org/2000/svg">
<path fill-rule="evenodd" clip-rule="evenodd" d="M12.6131 19.688C12.192 19.6887 11.786 19.5313 11.4755 19.2468C11.1649 18.9624 10.9726 18.5718 10.9364 18.1523C10.7768 16.3358 10.7365 14.5109 10.8157 12.6892L10.5305 12.669L8.8504 12.5472C8.60504 12.5292 8.36854 12.4479 8.16405 12.3111C7.95957 12.1744 7.7941 11.9868 7.68385 11.7669C7.5736 11.547 7.52235 11.3022 7.53512 11.0565C7.54788 10.8108 7.62423 10.5727 7.75667 10.3654C8.9936 8.43047 11.2589 6.26556 13.1238 4.92602C13.39 4.73535 13.7092 4.63281 14.0366 4.63281C14.364 4.63281 14.6832 4.73535 14.9494 4.92602C16.8132 6.26556 19.0785 8.43047 20.3154 10.3654C20.4478 10.5727 20.5242 10.8108 20.537 11.0565C20.5497 11.3022 20.4985 11.547 20.3882 11.7669C20.278 11.9868 20.1125 12.1744 19.908 12.3111C19.7035 12.4479 19.467 12.5292 19.2217 12.5472L17.5416 12.669L17.2563 12.6892C17.3353 14.5114 17.2947 16.3358 17.1357 18.1523C17.0995 18.5718 16.9071 18.9624 16.5966 19.2468C16.2861 19.5313 15.8801 19.6887 15.459 19.688H12.6131ZM12.5499 11.9473C12.4214 13.9627 12.4451 15.9849 12.621 17.9967H15.4511C15.627 15.9851 15.6507 13.9634 15.5233 11.9473C15.5163 11.8356 15.5315 11.7236 15.5681 11.6178C15.6048 11.512 15.662 11.4145 15.7366 11.331C15.8112 11.2475 15.9016 11.1797 16.0026 11.1314C16.1036 11.0831 16.2132 11.0554 16.325 11.0498C16.6903 11.0317 17.0549 11.0092 17.4187 10.9821L18.6376 10.8942C17.5543 9.30007 16.1994 7.90858 14.6348 6.78311L14.036 6.35351L13.4373 6.78311C11.8727 7.90858 10.5178 9.30007 9.43448 10.8942L10.6534 10.9833C11.0179 11.0096 11.3825 11.0317 11.7471 11.0498C11.8589 11.0554 11.9685 11.0831 12.0695 11.1314C12.1705 11.1797 12.2609 11.2475 12.3355 11.331C12.4101 11.4145 12.4673 11.512 12.5039 11.6178C12.5405 11.7236 12.5558 11.8356 12.5488 11.9473" fill="#0BB9CD"/>
<path d="M6.98821 20.1074C6.98821 19.8831 6.89911 19.668 6.74052 19.5094C6.58193 19.3508 6.36683 19.2617 6.14254 19.2617C5.91826 19.2617 5.70316 19.3508 5.54457 19.5094C5.38597 19.668 5.29688 19.8831 5.29688 20.1074V22.3625C5.29688 23.4517 6.18088 24.3357 7.2701 24.3357H20.8008C21.3241 24.3357 21.826 24.1278 22.1961 23.7578C22.5661 23.3877 22.774 22.8858 22.774 22.3625V20.1074C22.774 19.8831 22.6849 19.668 22.5263 19.5094C22.3677 19.3508 22.1526 19.2617 21.9283 19.2617C21.704 19.2617 21.4889 19.3508 21.3304 19.5094C21.1718 19.668 21.0827 19.8831 21.0827 20.1074V22.3625C21.0827 22.4373 21.053 22.509 21.0001 22.5618C20.9472 22.6147 20.8755 22.6444 20.8008 22.6444H7.2701C7.19534 22.6444 7.12364 22.6147 7.07077 22.5618C7.01791 22.509 6.98821 22.4373 6.98821 22.3625V20.1074Z" fill="#0BB9CD"/>
</svg>
