<svg width="811" height="304" viewBox="0 0 811 304" fill="none" xmlns="http://www.w3.org/2000/svg">
<g clip-path="url(#clip0_1020_1799)">
<path d="M23.2723 268.343C26.1212 269.344 29.1801 269.595 32.1541 269.071C35.1281 268.548 37.9171 267.267 40.2524 265.352C46.1997 260.36 48.0647 252.138 49.5815 244.524L54.0691 222L44.674 228.469C37.9171 233.121 31.0084 237.923 26.3305 244.661C21.6525 251.4 19.6117 260.599 23.3692 267.891" fill="#001F22"/>
<path d="M24.7206 297.18C23.5381 288.565 22.3215 279.838 23.1529 271.13C23.8898 263.397 26.2492 255.845 31.0526 249.65C33.6022 246.369 36.7046 243.558 40.2204 241.343C41.1369 240.764 41.9807 242.217 41.0681 242.793C34.9847 246.637 30.2794 252.314 27.6305 259.005C24.705 266.446 24.2352 274.557 24.7391 282.461C25.0437 287.241 25.691 291.99 26.341 296.733C26.3923 296.947 26.3603 297.173 26.2513 297.365C26.1424 297.557 25.9647 297.7 25.7542 297.766C25.5394 297.823 25.3105 297.794 25.1172 297.684C24.9238 297.575 24.7815 297.393 24.7212 297.179L24.7206 297.18Z" fill="#F2F2F2"/>
<path d="M33.2344 283.356C34.456 285.214 36.1355 286.725 38.111 287.745C40.0864 288.765 42.2913 289.259 44.513 289.179C50.224 288.908 54.9832 284.924 59.267 281.14L71.9404 269.951L63.5531 269.549C57.5213 269.26 51.3338 268.989 45.5887 270.851C39.8435 272.714 34.5452 277.188 33.4948 283.135" fill="#001F22"/>
<path d="M21.38 302.132C27.0731 292.059 33.676 280.864 45.4754 277.286C48.7559 276.294 52.1957 275.939 55.6096 276.239C56.6857 276.332 56.4169 277.99 55.3431 277.898C49.6204 277.423 43.9088 278.934 39.1698 282.177C34.7147 285.409 30.9378 289.485 28.0535 294.173C26.2125 296.976 24.5636 299.898 22.9147 302.817C22.3878 303.749 20.847 303.076 21.38 302.132Z" fill="#F2F2F2"/>
<path d="M544.026 255.176C547.949 256.555 552.162 256.9 556.257 256.179C560.352 255.457 564.193 253.693 567.409 251.057C575.599 244.182 578.167 232.861 580.256 222.375L586.435 191.358L573.498 200.267C564.193 206.673 554.679 213.285 548.238 222.565C541.796 231.844 538.985 244.512 544.16 254.553" fill="#001F22"/>
<path d="M546.024 294.886C544.396 283.022 542.721 271.005 543.866 259.014C544.88 248.365 548.129 237.965 554.744 229.435C558.255 224.916 562.527 221.045 567.369 217.994C568.631 217.198 569.793 219.198 568.536 219.991C560.159 225.286 553.679 233.103 550.031 242.317C546.003 252.563 545.356 263.733 546.05 274.617C546.469 281.2 547.361 287.739 548.256 294.27C548.326 294.565 548.282 294.876 548.132 295.141C547.982 295.405 547.738 295.602 547.448 295.692C547.152 295.772 546.837 295.732 546.571 295.581C546.304 295.429 546.108 295.179 546.025 294.884L546.024 294.886Z" fill="#F2F2F2"/>
<path d="M557.746 275.85C559.428 278.408 561.741 280.489 564.461 281.894C567.182 283.298 570.218 283.978 573.277 283.869C581.142 283.496 587.696 278.009 593.595 272.799L611.047 257.39L599.497 256.837C591.191 256.439 582.67 256.066 574.759 258.63C566.847 261.195 559.551 267.357 558.105 275.546" fill="#001F22"/>
<path d="M541.422 301.706C549.261 287.835 558.354 272.418 574.602 267.491C579.12 266.125 583.857 265.636 588.558 266.05C590.04 266.178 589.67 268.461 588.191 268.334C580.31 267.68 572.445 269.761 565.919 274.226C559.639 278.501 554.75 284.444 550.611 290.745C548.076 294.606 545.806 298.63 543.535 302.648C542.81 303.933 540.688 303.005 541.422 301.706Z" fill="#F2F2F2"/>
<path d="M470.551 46.4564C469.724 46.0963 469.058 45.4449 468.681 44.626C468.303 43.8071 468.24 42.8779 468.503 42.0154C468.546 41.8832 468.573 41.7464 468.583 41.6079C468.607 41.2127 468.503 40.8203 468.287 40.4888C468.07 40.1572 467.753 39.9042 467.382 39.7672C467.01 39.6302 466.604 39.6164 466.225 39.728C465.845 39.8396 465.511 40.0705 465.273 40.3867C465.191 40.4988 465.122 40.6203 465.069 40.7485C464.709 41.5752 464.057 42.2407 463.238 42.6182C462.419 42.9958 461.49 43.059 460.628 42.7959C460.495 42.7534 460.359 42.7266 460.22 42.716C459.825 42.692 459.433 42.7959 459.101 43.0123C458.77 43.2287 458.517 43.5461 458.379 43.9175C458.242 44.289 458.229 44.6947 458.34 45.0745C458.452 45.4544 458.683 45.7882 458.999 46.0265C459.111 46.1085 459.233 46.1769 459.361 46.2304C460.187 46.5905 460.853 47.242 461.231 48.0609C461.608 48.8798 461.671 49.8089 461.408 50.6714C461.366 50.8036 461.339 50.9404 461.328 51.0789C461.304 51.4741 461.408 51.8665 461.625 52.198C461.841 52.5296 462.158 52.7826 462.53 52.9196C462.901 53.0566 463.307 53.0704 463.687 52.9588C464.067 52.8472 464.4 52.6162 464.639 52.3001C464.721 52.1879 464.789 52.0665 464.843 51.9383C465.203 51.1116 465.854 50.4461 466.673 50.0686C467.492 49.691 468.421 49.6277 469.284 49.8908C469.416 49.9334 469.553 49.9602 469.691 49.9707C470.086 49.9948 470.479 49.8909 470.81 49.6745C471.142 49.4581 471.395 49.1407 471.532 48.7693C471.669 48.3978 471.683 47.9921 471.571 47.6123C471.46 47.2324 471.229 46.8986 470.912 46.6603C470.8 46.5783 470.679 46.5099 470.551 46.4564Z" fill="#FFAA00"/>
<path d="M540.551 209.456C539.724 209.096 539.058 208.445 538.681 207.626C538.303 206.807 538.24 205.878 538.503 205.015C538.546 204.883 538.573 204.746 538.583 204.608C538.607 204.213 538.503 203.82 538.287 203.489C538.07 203.157 537.753 202.904 537.382 202.767C537.01 202.63 536.604 202.616 536.225 202.728C535.845 202.84 535.511 203.071 535.273 203.387C535.191 203.499 535.122 203.62 535.069 203.748C534.709 204.575 534.057 205.241 533.238 205.618C532.419 205.996 531.49 206.059 530.628 205.796C530.495 205.753 530.359 205.727 530.22 205.716C529.825 205.692 529.433 205.796 529.101 206.012C528.77 206.229 528.517 206.546 528.379 206.918C528.242 207.289 528.229 207.695 528.34 208.075C528.452 208.454 528.683 208.788 528.999 209.027C529.111 209.108 529.233 209.177 529.361 209.23C530.187 209.59 530.853 210.242 531.231 211.061C531.608 211.88 531.671 212.809 531.408 213.671C531.366 213.804 531.339 213.94 531.328 214.079C531.304 214.474 531.408 214.867 531.625 215.198C531.841 215.53 532.158 215.783 532.53 215.92C532.901 216.057 533.307 216.07 533.687 215.959C534.067 215.847 534.4 215.616 534.639 215.3C534.721 215.188 534.789 215.067 534.843 214.938C535.203 214.112 535.854 213.446 536.673 213.069C537.492 212.691 538.421 212.628 539.284 212.891C539.416 212.933 539.553 212.96 539.691 212.971C540.086 212.995 540.479 212.891 540.81 212.675C541.142 212.458 541.395 212.141 541.532 211.769C541.669 211.398 541.683 210.992 541.571 210.612C541.46 210.232 541.229 209.899 540.912 209.66C540.8 209.578 540.679 209.51 540.551 209.456Z" fill="#FFAA00"/>
<path d="M173.551 114.456C172.724 114.096 172.058 113.445 171.681 112.626C171.303 111.807 171.24 110.878 171.503 110.015C171.546 109.883 171.573 109.746 171.583 109.608C171.607 109.213 171.503 108.82 171.287 108.489C171.07 108.157 170.753 107.904 170.382 107.767C170.01 107.63 169.604 107.616 169.225 107.728C168.845 107.84 168.511 108.071 168.273 108.387C168.191 108.499 168.122 108.62 168.069 108.748C167.709 109.575 167.057 110.241 166.238 110.618C165.419 110.996 164.49 111.059 163.628 110.796C163.495 110.753 163.359 110.727 163.22 110.716C162.825 110.692 162.433 110.796 162.101 111.012C161.77 111.229 161.517 111.546 161.379 111.918C161.242 112.289 161.229 112.695 161.34 113.075C161.452 113.454 161.683 113.788 161.999 114.027C162.111 114.108 162.233 114.177 162.361 114.23C163.187 114.59 163.853 115.242 164.231 116.061C164.608 116.88 164.671 117.809 164.408 118.671C164.366 118.804 164.339 118.94 164.328 119.079C164.304 119.474 164.408 119.867 164.625 120.198C164.841 120.53 165.158 120.783 165.53 120.92C165.901 121.057 166.307 121.07 166.687 120.959C167.067 120.847 167.4 120.616 167.639 120.3C167.721 120.188 167.789 120.067 167.843 119.938C168.203 119.112 168.854 118.446 169.673 118.069C170.492 117.691 171.421 117.628 172.284 117.891C172.416 117.933 172.553 117.96 172.691 117.971C173.086 117.995 173.479 117.891 173.81 117.675C174.142 117.458 174.395 117.141 174.532 116.769C174.669 116.398 174.683 115.992 174.571 115.612C174.46 115.232 174.229 114.899 173.912 114.66C173.8 114.578 173.679 114.51 173.551 114.456Z" fill="#FFAA00"/>
<path d="M326.652 56C329.966 56 332.652 53.3137 332.652 50C332.652 46.6863 329.966 44 326.652 44C323.339 44 320.652 46.6863 320.652 50C320.652 53.3137 323.339 56 326.652 56Z" fill="#FFAA00"/>
<path d="M646.652 40C649.966 40 652.652 37.3137 652.652 34C652.652 30.6863 649.966 28 646.652 28C643.339 28 640.652 30.6863 640.652 34C640.652 37.3137 643.339 40 646.652 40Z" fill="#0BB9CD"/>
<path d="M180.652 12C183.966 12 186.652 9.31371 186.652 6C186.652 2.68629 183.966 0 180.652 0C177.339 0 174.652 2.68629 174.652 6C174.652 9.31371 177.339 12 180.652 12Z" fill="#FFAA00"/>
<path d="M157.579 284.69C181.364 284.69 200.646 265.408 200.646 241.623C200.646 217.838 181.364 198.556 157.579 198.556C133.794 198.556 114.512 217.838 114.512 241.623C114.512 265.408 133.794 284.69 157.579 284.69Z" fill="#001F22"/>
<path d="M151.037 275.423H137.953V298.865H151.037V275.423Z" fill="#001F22"/>
<path d="M177.205 275.423H164.121V298.865H177.205V275.423Z" fill="#001F22"/>
<path d="M148.856 303.226C154.878 303.226 159.759 301.396 159.759 299.138C159.759 296.879 154.878 295.049 148.856 295.049C142.835 295.049 137.953 296.879 137.953 299.138C137.953 301.396 142.835 303.226 148.856 303.226Z" fill="#001F22"/>
<path d="M175.024 302.681C181.046 302.681 185.927 300.851 185.927 298.593C185.927 296.334 181.046 294.504 175.024 294.504C169.003 294.504 164.121 296.334 164.121 298.593C164.121 300.851 169.003 302.681 175.024 302.681Z" fill="#001F22"/>
<path d="M203.988 222.804C213.315 213.47 218.5 203.529 215.57 200.601C212.64 197.673 202.703 202.866 193.376 212.201C184.049 221.535 178.864 231.475 181.794 234.403C184.724 237.331 194.661 232.138 203.988 222.804Z" fill="#001F22"/>
<path d="M122.867 237.404C125.797 234.476 120.612 224.535 111.285 215.201C101.958 205.867 92.0212 200.674 89.0909 203.602C86.1606 206.53 91.3462 216.47 100.673 225.804C110 235.139 119.937 240.332 122.867 237.404Z" fill="#001F22"/>
<path d="M155.766 250.239C163.895 250.239 170.485 243.649 170.485 235.52C170.485 227.391 163.895 220.801 155.766 220.801C147.637 220.801 141.047 227.391 141.047 235.52C141.047 243.649 147.637 250.239 155.766 250.239Z" fill="white"/>
<path d="M155.77 240.426C158.479 240.426 160.676 238.229 160.676 235.52C160.676 232.81 158.479 230.613 155.77 230.613C153.06 230.613 150.863 232.81 150.863 235.52C150.863 238.229 153.06 240.426 155.77 240.426Z" fill="#3F3D56"/>
<path d="M167.453 262.743C167.907 265.241 167.351 267.817 165.907 269.904C164.462 271.992 162.247 273.42 159.749 273.875C157.252 274.33 154.676 273.774 152.588 272.329C150.5 270.884 149.072 268.67 148.617 266.172L148.614 266.153C147.672 260.951 151.694 259.11 156.897 258.169C162.099 257.227 166.511 257.541 167.453 262.743Z" fill="white"/>
<path d="M199.809 286.823C198.839 286.824 197.91 287.21 197.224 287.895C196.539 288.581 196.153 289.51 196.152 290.48V298.117C196.153 299.086 196.539 300.016 197.224 300.701C197.91 301.387 198.839 301.772 199.809 301.773H258.638C259.608 301.772 260.537 301.387 261.223 300.701C261.908 300.016 262.294 299.086 262.295 298.117V290.48C262.294 289.51 261.908 288.581 261.223 287.895C260.537 287.21 259.608 286.824 258.638 286.823H199.809Z" fill="#001F22"/>
<path d="M233.643 281.737C233.279 281.527 232.846 281.47 232.44 281.578C232.034 281.687 231.688 281.953 231.477 282.317L229.291 286.104L227.149 281.87C226.959 281.494 226.628 281.21 226.228 281.079C225.829 280.948 225.393 280.981 225.018 281.171C224.643 281.361 224.358 281.692 224.227 282.091C224.096 282.491 224.129 282.926 224.319 283.301L225.986 286.597H225.375V302H233.53V286.597H232.668L234.224 283.903C234.434 283.539 234.491 283.106 234.382 282.7C234.273 282.293 234.007 281.947 233.643 281.737Z" fill="#0BB9CD"/>
<path d="M156.469 213.375C148.817 213.367 141.21 212.205 133.905 209.928C133.397 209.764 132.954 209.444 132.639 209.013C132.325 208.583 132.154 208.064 132.152 207.53V190C132.153 189.337 132.417 188.702 132.885 188.233C133.354 187.764 133.99 187.501 134.652 187.5H178.652C179.315 187.501 179.951 187.764 180.419 188.233C180.888 188.702 181.152 189.337 181.152 190V207.52C181.153 208.058 180.98 208.582 180.659 209.014C180.339 209.446 179.888 209.763 179.374 209.919C171.95 212.188 164.232 213.352 156.469 213.375Z" fill="#0BB9CD"/>
<path opacity="0.2" d="M180.652 190V192.93L156.842 201.28C156.397 201.434 155.913 201.426 155.472 201.26L132.652 192.69V190C132.654 189.47 132.865 188.962 133.24 188.587C133.615 188.213 134.122 188.002 134.652 188H178.652C179.182 188.002 179.69 188.213 180.065 188.587C180.44 188.962 180.651 189.47 180.652 190Z" fill="black"/>
<path d="M156.179 197.892C155.879 197.892 155.581 197.838 155.3 197.733L121.199 184.928C120.717 184.747 120.303 184.422 120.013 183.996C119.722 183.571 119.571 183.066 119.578 182.551C119.586 182.036 119.752 181.536 120.055 181.119C120.358 180.702 120.782 180.389 121.269 180.222L153.354 169.246C153.873 169.07 154.434 169.068 154.954 169.239L190.764 181.176C191.259 181.341 191.689 181.656 191.996 182.078C192.302 182.5 192.469 183.007 192.473 183.528C192.477 184.05 192.318 184.559 192.018 184.986C191.718 185.412 191.292 185.734 190.8 185.907L157.006 197.752C156.74 197.845 156.46 197.892 156.179 197.892Z" fill="#0BB9CD"/>
<path d="M125.152 197H124.152V182.5H154.652V183.5H125.152V197Z" fill="#3F3D56"/>
<path d="M124.652 200C125.757 200 126.652 199.105 126.652 198C126.652 196.895 125.757 196 124.652 196C123.548 196 122.652 196.895 122.652 198C122.652 199.105 123.548 200 124.652 200Z" fill="#3F3D56"/>
<path d="M406.579 284.69C430.364 284.69 449.646 265.408 449.646 241.623C449.646 217.838 430.364 198.556 406.579 198.556C382.794 198.556 363.512 217.838 363.512 241.623C363.512 265.408 382.794 284.69 406.579 284.69Z" fill="#001F22"/>
<path d="M400.037 275.423H386.953V298.865H400.037V275.423Z" fill="#001F22"/>
<path d="M426.205 275.423H413.121V298.865H426.205V275.423Z" fill="#001F22"/>
<path d="M397.856 303.226C403.878 303.226 408.759 301.396 408.759 299.138C408.759 296.879 403.878 295.049 397.856 295.049C391.835 295.049 386.953 296.879 386.953 299.138C386.953 301.396 391.835 303.226 397.856 303.226Z" fill="#001F22"/>
<path d="M424.024 302.681C430.046 302.681 434.927 300.851 434.927 298.593C434.927 296.334 430.046 294.504 424.024 294.504C418.003 294.504 413.121 296.334 413.121 298.593C413.121 300.851 418.003 302.681 424.024 302.681Z" fill="#001F22"/>
<path d="M452.988 222.804C462.315 213.47 467.5 203.529 464.57 200.601C461.64 197.673 451.703 202.866 442.376 212.201C433.049 221.535 427.864 231.475 430.794 234.403C433.724 237.331 443.661 232.138 452.988 222.804Z" fill="#001F22"/>
<path d="M368.14 262.78C375.666 251.942 379.009 241.24 375.607 238.877C372.204 236.514 363.345 243.386 355.819 254.224C348.292 265.063 344.95 275.765 348.352 278.128C351.755 280.49 360.614 273.619 368.14 262.78Z" fill="#001F22"/>
<path d="M404.766 250.239C412.895 250.239 419.485 243.649 419.485 235.52C419.485 227.391 412.895 220.801 404.766 220.801C396.637 220.801 390.047 227.391 390.047 235.52C390.047 243.649 396.637 250.239 404.766 250.239Z" fill="white"/>
<path d="M409.77 235.426C412.479 235.426 414.676 233.229 414.676 230.52C414.676 227.81 412.479 225.613 409.77 225.613C407.06 225.613 404.863 227.81 404.863 230.52C404.863 233.229 407.06 235.426 409.77 235.426Z" fill="#3F3D56"/>
<path d="M422.415 262.743C423.859 267.944 418.6 272.928 410.668 273.875C402.736 274.822 395.135 271.373 393.691 266.172L393.686 266.153C392.25 260.951 398.384 259.11 406.317 258.169C414.251 257.227 420.979 257.541 422.415 262.743Z" fill="white"/>
<path d="M391.512 216.277C384.41 219.124 376.918 220.884 369.29 221.496C368.758 221.534 368.228 221.402 367.775 221.12C367.323 220.838 366.971 220.42 366.77 219.926L360.23 203.661C359.984 203.046 359.991 202.358 360.251 201.748C360.511 201.139 361.003 200.657 361.617 200.409L402.441 183.994C403.056 183.748 403.744 183.755 404.353 184.015C404.963 184.275 405.445 184.766 405.693 185.381L412.229 201.636C412.43 202.135 412.465 202.685 412.329 203.206C412.193 203.726 411.893 204.189 411.474 204.526C405.432 209.4 398.706 213.359 391.512 216.277Z" fill="#0BB9CD"/>
<path opacity="0.2" d="M405.228 185.568L406.321 188.286L387.345 204.916C386.99 205.224 386.537 205.399 386.067 205.408L361.697 205.971L360.693 203.475C360.497 202.982 360.504 202.432 360.712 201.945C360.919 201.458 361.312 201.072 361.803 200.873L402.626 184.458C403.119 184.262 403.669 184.268 404.156 184.476C404.644 184.684 405.029 185.076 405.228 185.568Z" fill="black"/>
<path d="M385.462 202.021C385.183 202.133 384.887 202.194 384.587 202.201L348.171 203.043C347.656 203.055 347.15 202.907 346.722 202.621C346.294 202.334 345.965 201.922 345.78 201.442C345.595 200.961 345.563 200.435 345.688 199.935C345.814 199.436 346.09 198.987 346.48 198.651L372.154 176.496C372.569 176.14 373.089 175.929 373.636 175.893L411.314 173.609C411.834 173.578 412.351 173.709 412.793 173.987C413.235 174.264 413.579 174.672 413.777 175.154C413.975 175.636 414.018 176.168 413.899 176.676C413.779 177.184 413.504 177.641 413.112 177.985L386.176 201.582C385.964 201.768 385.723 201.916 385.462 202.021Z" fill="#0BB9CD"/>
<path d="M356.345 212.767L355.417 213.14L350.008 199.687L378.306 188.308L378.679 189.236L351.308 200.242L356.345 212.767Z" fill="#3F3D56"/>
<path d="M356.254 215.881C357.358 215.881 358.254 214.985 358.254 213.881C358.254 212.776 357.358 211.881 356.254 211.881C355.149 211.881 354.254 212.776 354.254 213.881C354.254 214.985 355.149 215.881 356.254 215.881Z" fill="#3F3D56"/>
<path d="M570.537 139.869C564.045 135.817 558.201 130.81 553.203 125.016C552.859 124.608 552.652 124.103 552.612 123.571C552.573 123.039 552.702 122.508 552.983 122.054L562.248 107.173C562.599 106.61 563.159 106.21 563.804 106.06C564.45 105.91 565.129 106.022 565.692 106.372L603.044 129.628C603.606 129.979 604.006 130.538 604.156 131.184C604.306 131.829 604.194 132.508 603.845 133.071L594.585 147.944C594.3 148.401 593.877 148.754 593.377 148.952C592.876 149.149 592.326 149.18 591.806 149.041C584.305 147.043 577.139 143.952 570.537 139.869Z" fill="#0BB9CD"/>
<path opacity="0.2" d="M603.419 132.808L601.871 135.295L577.245 129.799C576.786 129.694 576.378 129.432 576.092 129.058L561.25 109.721L562.672 107.438C562.953 106.989 563.401 106.669 563.917 106.549C564.433 106.429 564.976 106.518 565.427 106.797L602.779 130.053C603.228 130.334 603.547 130.782 603.667 131.298C603.787 131.814 603.698 132.357 603.419 132.808Z" fill="black"/>
<path d="M578.473 126.57C578.218 126.412 577.994 126.209 577.811 125.971L555.63 97.0771C555.317 96.6686 555.137 96.1732 555.115 95.6586C555.094 95.144 555.232 94.6353 555.511 94.2022C555.789 93.769 556.195 93.4325 556.672 93.2386C557.149 93.0447 557.675 93.0029 558.177 93.1189L591.216 100.759C591.749 100.884 592.226 101.179 592.577 101.599L616.667 130.66C617 131.061 617.199 131.557 617.236 132.077C617.273 132.597 617.147 133.115 616.875 133.56C616.603 134.005 616.198 134.353 615.718 134.557C615.238 134.76 614.707 134.809 614.198 134.695L579.249 126.888C578.974 126.827 578.712 126.719 578.473 126.57Z" fill="#0BB9CD"/>
<path d="M552.607 109.416L551.758 108.887L559.422 96.5781L585.314 112.699L584.785 113.547L559.742 97.9551L552.607 109.416Z" fill="#3F3D56"/>
<path d="M551.652 112C552.757 112 553.652 111.105 553.652 110C553.652 108.895 552.757 108 551.652 108C550.548 108 549.652 108.895 549.652 110C549.652 111.105 550.548 112 551.652 112Z" fill="#3F3D56"/>
<path d="M674.727 235.69C698.513 235.69 717.795 216.408 717.795 192.623C717.795 168.838 698.513 149.556 674.727 149.556C650.942 149.556 631.66 168.838 631.66 192.623C631.66 216.408 650.942 235.69 674.727 235.69Z" fill="#001F22"/>
<path d="M704.586 214.955L693.422 221.777L705.646 241.779L716.81 234.957L704.586 214.955Z" fill="#001F22"/>
<path d="M682.258 228.6L671.094 235.423L683.318 255.425L694.482 248.602L682.258 228.6Z" fill="#001F22"/>
<path d="M709.779 244.363C714.917 241.223 718.127 237.115 716.95 235.189C715.772 233.262 710.652 234.245 705.514 237.386C700.376 240.526 697.166 244.633 698.343 246.56C699.521 248.487 704.64 247.503 709.779 244.363Z" fill="#001F22"/>
<path d="M687.169 257.544C692.307 254.404 695.518 250.296 694.34 248.369C693.163 246.443 688.043 247.426 682.905 250.566C677.767 253.706 674.556 257.814 675.734 259.741C676.911 261.667 682.031 260.684 687.169 257.544Z" fill="#001F22"/>
<path d="M650.511 185.404C653.442 182.476 648.256 172.535 638.929 163.201C629.602 153.867 619.666 148.674 616.735 151.602C613.805 154.53 618.991 164.47 628.318 173.804C637.645 183.139 647.581 188.332 650.511 185.404Z" fill="#001F22"/>
<path d="M732.958 229.128C736.361 226.765 733.018 216.063 725.492 205.225C717.966 194.386 709.107 187.515 705.704 189.877C702.301 192.24 705.644 202.942 713.17 213.781C720.696 224.619 729.556 231.491 732.958 229.128Z" fill="#001F22"/>
<path d="M661.54 195.239C669.669 195.239 676.259 188.649 676.259 180.52C676.259 172.391 669.669 165.801 661.54 165.801C653.41 165.801 646.82 172.391 646.82 180.52C646.82 188.649 653.41 195.239 661.54 195.239Z" fill="white"/>
<path d="M656.539 180.426C659.249 180.426 661.446 178.229 661.446 175.52C661.446 172.81 659.249 170.613 656.539 170.613C653.829 170.613 651.633 172.81 651.633 175.52C651.633 178.229 653.829 180.426 656.539 180.426Z" fill="#3F3D56"/>
<path d="M642.584 205.073C639.793 209.646 643.512 215.833 650.89 218.891C658.269 221.95 666.513 220.722 669.304 216.149L669.314 216.133C672.098 211.557 666.691 208.133 659.31 205.079C651.928 202.025 645.368 200.497 642.584 205.073Z" fill="white"/>
<path d="M660.277 138.547C664.123 123.06 681.098 113.946 698.192 118.191C715.286 122.435 726.026 138.431 722.18 153.918C718.335 169.405 705.577 169.455 688.482 165.211C671.388 160.966 656.431 154.034 660.277 138.547Z" fill="#0BB9CD"/>
<path d="M810 304H1C0.734784 304 0.480429 303.895 0.292892 303.707C0.105356 303.52 0 303.265 0 303C0 302.735 0.105356 302.48 0.292892 302.293C0.480429 302.105 0.734784 302 1 302H810C810.265 302 810.52 302.105 810.707 302.293C810.895 302.48 811 302.735 811 303C811 303.265 810.895 303.52 810.707 303.707C810.52 303.895 810.265 304 810 304Z" fill="#CBCBCB"/>
</g>
<defs>
<clipPath id="clip0_1020_1799">
<rect width="811" height="304" fill="white"/>
</clipPath>
</defs>
</svg>
