<svg width="16" height="16" viewBox="0 0 16 16" fill="none" xmlns="http://www.w3.org/2000/svg">
<path d="M8 13.0098C7.80222 13.0098 7.60888 12.9511 7.44443 12.8412C7.27998 12.7314 7.15181 12.5752 7.07612 12.3924C7.00043 12.2097 6.98063 12.0087 7.01922 11.8147C7.0578 11.6207 7.15304 11.4425 7.29289 11.3027C7.43275 11.1628 7.61093 11.0676 7.80491 11.029C7.99889 10.9904 8.19996 11.0102 8.38268 11.0859C8.56541 11.1616 8.72159 11.2897 8.83147 11.4542C8.94135 11.6186 9 11.812 9 12.0098C9 12.275 8.89464 12.5293 8.70711 12.7169C8.51957 12.9044 8.26522 13.0098 8 13.0098Z" fill="#858585"/>
<path d="M8 10.0098C7.86739 10.0098 7.74021 9.95709 7.64645 9.86332C7.55268 9.76955 7.5 9.64237 7.5 9.50977V5.50977C7.5 5.37716 7.55268 5.24998 7.64645 5.15621C7.74021 5.06244 7.86739 5.00977 8 5.00977C8.13261 5.00977 8.25979 5.06244 8.35355 5.15621C8.44732 5.24998 8.5 5.37716 8.5 5.50977V9.50977C8.5 9.64237 8.44732 9.76955 8.35355 9.86332C8.25979 9.95709 8.13261 10.0098 8 10.0098Z" fill="#858585"/>
<path d="M13.89 15.0094H2.11C1.83062 15.0113 1.55563 14.9398 1.31256 14.802C1.0695 14.6642 0.866882 14.465 0.725002 14.2244C0.583056 13.9891 0.505554 13.7206 0.500288 13.4459C0.495021 13.1712 0.562177 12.8999 0.695002 12.6594L6.585 1.84435C6.72438 1.59101 6.92921 1.37974 7.17811 1.23259C7.42701 1.08544 7.71086 1.00781 8 1.00781C8.28915 1.00781 8.57299 1.08544 8.82189 1.23259C9.0708 1.37974 9.27563 1.59101 9.415 1.84435L15.305 12.6594C15.4378 12.8999 15.505 13.1712 15.4997 13.4459C15.4945 13.7206 15.4169 13.9891 15.275 14.2244C15.1331 14.465 14.9305 14.6642 14.6874 14.802C14.4444 14.9398 14.1694 15.0113 13.89 15.0094ZM8 2.00935C7.89036 2.00695 7.78222 2.03515 7.68772 2.09079C7.59322 2.14643 7.51609 2.22731 7.465 2.32435L1.575 13.1344C1.52206 13.2218 1.49406 13.3221 1.49406 13.4244C1.49406 13.5266 1.52206 13.6269 1.575 13.7144C1.62621 13.8021 1.69906 13.8753 1.78658 13.927C1.87411 13.9786 1.9734 14.007 2.075 14.0094H13.89C13.9916 14.007 14.0909 13.9786 14.1784 13.927C14.2659 13.8753 14.3388 13.8021 14.39 13.7144C14.4429 13.6269 14.4709 13.5266 14.4709 13.4244C14.4709 13.3221 14.4429 13.2218 14.39 13.1344L8.535 2.32435C8.48391 2.22731 8.40679 2.14643 8.31229 2.09079C8.21778 2.03515 8.10964 2.00695 8 2.00935Z" fill="#858585"/>
</svg>
